<?xml version="1.0" encoding="us-ascii" standalone="no"?><svg xmlns="http://www.w3.org/2000/svg" xmlns:xlink="http://www.w3.org/1999/xlink" contentStyleType="text/css" height="1054px" preserveAspectRatio="none" style="width:685px;height:1054px;background:#FFFFFF;" version="1.1" viewBox="0 0 685 1054" width="685px" zoomAndPan="magnify"><defs/><g><text fill="#000000" font-family="sans-serif" font-size="14" font-weight="bold" lengthAdjust="spacing" textLength="209" x="234.25" y="27.9951">Peras Sequence for Nodes</text><rect fill="none" height="359.3281" style="stroke:#000000;stroke-width:1.5;" width="616" x="52.5" y="221.9922"/><rect fill="none" height="130.5313" style="stroke:#000000;stroke-width:1.5;" width="427.5" x="231" y="443.7891"/><rect fill="none" height="232.9297" style="stroke:#000000;stroke-width:1.5;" width="616" x="52.5" y="751.8516"/><rect fill="none" height="88.3984" style="stroke:#000000;stroke-width:1.5;" width="427.5" x="231" y="889.3828"/><line style="stroke:#181818;stroke-width:0.5;stroke-dasharray:5.0,5.0;" x1="28" x2="28" y1="90.5938" y2="1001.7813"/><line style="stroke:#181818;stroke-width:0.5;stroke-dasharray:5.0,5.0;" x1="120.5" x2="120.5" y1="90.5938" y2="1001.7813"/><line style="stroke:#181818;stroke-width:0.5;stroke-dasharray:5.0,5.0;" x1="310" x2="310" y1="90.5938" y2="1001.7813"/><line style="stroke:#181818;stroke-width:0.5;stroke-dasharray:5.0,5.0;" x1="548.5" x2="548.5" y1="90.5938" y2="1001.7813"/><text fill="#000000" font-family="sans-serif" font-size="14" lengthAdjust="spacing" textLength="40" x="5" y="87.292">Clock</text><ellipse cx="28" cy="58.2969" fill="#E2E2F0" rx="12" ry="12" style="stroke:#181818;stroke-width:0.5;"/><polygon fill="#181818" points="24,46.2969,30,41.2969,28,46.2969,30,51.2969,24,46.2969" style="stroke:#181818;stroke-width:1.0;"/><text fill="#000000" font-family="sans-serif" font-size="14" lengthAdjust="spacing" textLength="40" x="5" y="1013.7764">Clock</text><ellipse cx="28" cy="1033.0781" fill="#E2E2F0" rx="12" ry="12" style="stroke:#181818;stroke-width:0.5;"/><polygon fill="#181818" points="24,1021.0781,30,1016.0781,28,1021.0781,30,1026.0781,24,1021.0781" style="stroke:#181818;stroke-width:1.0;"/><text fill="#000000" font-family="sans-serif" font-size="14" lengthAdjust="spacing" textLength="111" x="62.5" y="87.292">Upstream Node</text><ellipse cx="121" cy="58.2969" fill="#E2E2F0" rx="12" ry="12" style="stroke:#181818;stroke-width:0.5;"/><line style="stroke:#181818;stroke-width:0.5;" x1="109" x2="133" y1="72.2969" y2="72.2969"/><text fill="#000000" font-family="sans-serif" font-size="14" lengthAdjust="spacing" textLength="111" x="62.5" y="1013.7764">Upstream Node</text><ellipse cx="121" cy="1033.0781" fill="#E2E2F0" rx="12" ry="12" style="stroke:#181818;stroke-width:0.5;"/><line style="stroke:#181818;stroke-width:0.5;" x1="109" x2="133" y1="1047.0781" y2="1047.0781"/><text fill="#000000" font-family="sans-serif" font-size="14" lengthAdjust="spacing" textLength="132" x="241" y="87.292">Downstream Node</text><ellipse cx="310" cy="58.2969" fill="#E2E2F0" rx="12" ry="12" style="stroke:#181818;stroke-width:0.5;"/><line style="stroke:#181818;stroke-width:0.5;" x1="298" x2="322" y1="72.2969" y2="72.2969"/><text fill="#000000" font-family="sans-serif" font-size="14" lengthAdjust="spacing" textLength="132" x="241" y="1013.7764">Downstream Node</text><ellipse cx="310" cy="1033.0781" fill="#E2E2F0" rx="12" ry="12" style="stroke:#181818;stroke-width:0.5;"/><line style="stroke:#181818;stroke-width:0.5;" x1="298" x2="322" y1="1047.0781" y2="1047.0781"/><rect fill="#E2E2F0" height="30.2969" style="stroke:#181818;stroke-width:0.5;" width="195" x="453.5" y="55.2969"/><rect fill="#E2E2F0" height="30.2969" style="stroke:#181818;stroke-width:0.5;" width="195" x="449.5" y="59.2969"/><text fill="#000000" font-family="sans-serif" font-size="14" lengthAdjust="spacing" textLength="181" x="456.5" y="79.292">Other Downstream Peers</text><rect fill="#E2E2F0" height="30.2969" style="stroke:#181818;stroke-width:0.5;" width="195" x="453.5" y="1000.7813"/><rect fill="#E2E2F0" height="30.2969" style="stroke:#181818;stroke-width:0.5;" width="195" x="449.5" y="1004.7813"/><text fill="#000000" font-family="sans-serif" font-size="14" lengthAdjust="spacing" textLength="181" x="456.5" y="1024.7764">Other Downstream Peers</text><rect fill="#EEEEEE" height="3" style="stroke:#EEEEEE;stroke-width:1.0;" width="678.5" x="0" y="121.1602"/><line style="stroke:#000000;stroke-width:1.0;" x1="0" x2="678.5" y1="121.1602" y2="121.1602"/><line style="stroke:#000000;stroke-width:1.0;" x1="0" x2="678.5" y1="124.1602" y2="124.1602"/><rect fill="#EEEEEE" height="23.1328" style="stroke:#000000;stroke-width:2.0;" width="87" x="295.75" y="110.5938"/><text fill="#000000" font-family="sans-serif" font-size="13" font-weight="bold" lengthAdjust="spacing" textLength="68" x="301.75" y="126.6606">New Slot</text><polygon fill="#181818" points="109,160.8594,119,164.8594,109,168.8594,113,164.8594" style="stroke:#181818;stroke-width:1.0;"/><line style="stroke:#181818;stroke-width:1.0;" x1="28" x2="115" y1="164.8594" y2="164.8594"/><text fill="#000000" font-family="sans-serif" font-size="13" lengthAdjust="spacing" textLength="55" x="35" y="159.7935">New slot</text><line style="stroke:#181818;stroke-width:1.0;" x1="121" x2="163" y1="193.9922" y2="193.9922"/><line style="stroke:#181818;stroke-width:1.0;" x1="163" x2="163" y1="193.9922" y2="206.9922"/><line style="stroke:#181818;stroke-width:1.0;" x1="122" x2="163" y1="206.9922" y2="206.9922"/><polygon fill="#181818" points="132,202.9922,122,206.9922,132,210.9922,128,206.9922" style="stroke:#181818;stroke-width:1.0;"/><text fill="#000000" font-family="sans-serif" font-size="13" lengthAdjust="spacing" textLength="88" x="128" y="188.9263">Is slot leader?</text><path d="M52.5,221.9922 L124.5,221.9922 L124.5,229.125 L114.5,239.125 L52.5,239.125 L52.5,221.9922 " fill="#EEEEEE" style="stroke:#000000;stroke-width:1.5;"/><rect fill="none" height="359.3281" style="stroke:#000000;stroke-width:1.5;" width="616" x="52.5" y="221.9922"/><text fill="#000000" font-family="sans-serif" font-size="13" font-weight="bold" lengthAdjust="spacing" textLength="27" x="67.5" y="235.0591">opt</text><text fill="#000000" font-family="sans-serif" font-size="11" font-weight="bold" lengthAdjust="spacing" textLength="83" x="139.5" y="234.2026">[slot leader]</text><line style="stroke:#181818;stroke-width:1.0;" x1="121" x2="163" y1="260.2578" y2="260.2578"/><line style="stroke:#181818;stroke-width:1.0;" x1="163" x2="163" y1="260.2578" y2="273.2578"/><line style="stroke:#181818;stroke-width:1.0;" x1="122" x2="163" y1="273.2578" y2="273.2578"/><polygon fill="#181818" points="132,269.2578,122,273.2578,132,277.2578,128,273.2578" style="stroke:#181818;stroke-width:1.0;"/><text fill="#000000" font-family="sans-serif" font-size="13" lengthAdjust="spacing" textLength="169" x="128" y="255.1919">Select votes for new block</text><line style="stroke:#181818;stroke-width:1.0;" x1="121" x2="163" y1="302.3906" y2="302.3906"/><line style="stroke:#181818;stroke-width:1.0;" x1="163" x2="163" y1="302.3906" y2="315.3906"/><line style="stroke:#181818;stroke-width:1.0;" x1="122" x2="163" y1="315.3906" y2="315.3906"/><polygon fill="#181818" points="132,311.3906,122,315.3906,132,319.3906,128,315.3906" style="stroke:#181818;stroke-width:1.0;"/><text fill="#000000" font-family="sans-serif" font-size="13" lengthAdjust="spacing" textLength="65" x="128" y="297.3247">New block</text><polygon fill="#181818" points="298,340.5234,308,344.5234,298,348.5234,302,344.5234" style="stroke:#181818;stroke-width:1.0;"/><line style="stroke:#181818;stroke-width:1.0;" x1="121" x2="304" y1="344.5234" y2="344.5234"/><text fill="#000000" font-family="sans-serif" font-size="13" lengthAdjust="spacing" textLength="165" x="128" y="339.4575">Send new preferred chain</text><line style="stroke:#181818;stroke-width:1.0;" x1="310" x2="352" y1="373.6563" y2="373.6563"/><line style="stroke:#181818;stroke-width:1.0;" x1="352" x2="352" y1="373.6563" y2="386.6563"/><line style="stroke:#181818;stroke-width:1.0;" x1="311" x2="352" y1="386.6563" y2="386.6563"/><polygon fill="#181818" points="321,382.6563,311,386.6563,321,390.6563,317,386.6563" style="stroke:#181818;stroke-width:1.0;"/><text fill="#000000" font-family="sans-serif" font-size="13" lengthAdjust="spacing" textLength="137" x="317" y="368.5903">Check chain's validity</text><line style="stroke:#181818;stroke-width:1.0;" x1="310" x2="352" y1="415.7891" y2="415.7891"/><line style="stroke:#181818;stroke-width:1.0;" x1="352" x2="352" y1="415.7891" y2="428.7891"/><line style="stroke:#181818;stroke-width:1.0;" x1="311" x2="352" y1="428.7891" y2="428.7891"/><polygon fill="#181818" points="321,424.7891,311,428.7891,321,432.7891,317,428.7891" style="stroke:#181818;stroke-width:1.0;"/><text fill="#000000" font-family="sans-serif" font-size="13" lengthAdjust="spacing" textLength="225" x="317" y="410.7231">Compare weight to preferred chain</text><path d="M231,443.7891 L303,443.7891 L303,450.9219 L293,460.9219 L231,460.9219 L231,443.7891 " fill="#EEEEEE" style="stroke:#000000;stroke-width:1.5;"/><rect fill="none" height="130.5313" style="stroke:#000000;stroke-width:1.5;" width="427.5" x="231" y="443.7891"/><text fill="#000000" font-family="sans-serif" font-size="13" font-weight="bold" lengthAdjust="spacing" textLength="27" x="246" y="456.856">opt</text><text fill="#000000" font-family="sans-serif" font-size="11" font-weight="bold" lengthAdjust="spacing" textLength="232" x="318" y="455.9995">[valid new chain has higher weight]</text><line style="stroke:#181818;stroke-width:1.0;" x1="310" x2="352" y1="482.0547" y2="482.0547"/><line style="stroke:#181818;stroke-width:1.0;" x1="352" x2="352" y1="482.0547" y2="495.0547"/><line style="stroke:#181818;stroke-width:1.0;" x1="311" x2="352" y1="495.0547" y2="495.0547"/><polygon fill="#181818" points="321,491.0547,311,495.0547,321,499.0547,317,495.0547" style="stroke:#181818;stroke-width:1.0;"/><text fill="#000000" font-family="sans-serif" font-size="13" lengthAdjust="spacing" textLength="108" x="317" y="476.9888">Prefer new chain</text><line style="stroke:#181818;stroke-width:1.0;" x1="310" x2="352" y1="524.1875" y2="524.1875"/><line style="stroke:#181818;stroke-width:1.0;" x1="352" x2="352" y1="524.1875" y2="537.1875"/><line style="stroke:#181818;stroke-width:1.0;" x1="311" x2="352" y1="537.1875" y2="537.1875"/><polygon fill="#181818" points="321,533.1875,311,537.1875,321,541.1875,317,537.1875" style="stroke:#181818;stroke-width:1.0;"/><text fill="#000000" font-family="sans-serif" font-size="13" lengthAdjust="spacing" textLength="144" x="317" y="519.1216">Update dangling votes</text><polygon fill="#181818" points="537,562.3203,547,566.3203,537,570.3203,541,566.3203" style="stroke:#181818;stroke-width:1.0;"/><line style="stroke:#181818;stroke-width:1.0;" x1="310" x2="543" y1="566.3203" y2="566.3203"/><text fill="#000000" font-family="sans-serif" font-size="13" lengthAdjust="spacing" textLength="165" x="317" y="561.2544">Send new preferred chain</text><rect fill="#EEEEEE" height="3" style="stroke:#EEEEEE;stroke-width:1.0;" width="678.5" x="0" y="608.8867"/><line style="stroke:#000000;stroke-width:1.0;" x1="0" x2="678.5" y1="608.8867" y2="608.8867"/><line style="stroke:#000000;stroke-width:1.0;" x1="0" x2="678.5" y1="611.8867" y2="611.8867"/><rect fill="#EEEEEE" height="23.1328" style="stroke:#000000;stroke-width:2.0;" width="103" x="287.75" y="598.3203"/><text fill="#000000" font-family="sans-serif" font-size="13" font-weight="bold" lengthAdjust="spacing" textLength="84" x="293.75" y="614.3872">New Round</text><polygon fill="#181818" points="109,648.5859,119,652.5859,109,656.5859,113,652.5859" style="stroke:#181818;stroke-width:1.0;"/><line style="stroke:#181818;stroke-width:1.0;" x1="28" x2="115" y1="652.5859" y2="652.5859"/><text fill="#000000" font-family="sans-serif" font-size="13" lengthAdjust="spacing" textLength="69" x="35" y="647.52">New round</text><line style="stroke:#181818;stroke-width:1.0;" x1="121" x2="163" y1="681.7188" y2="681.7188"/><line style="stroke:#181818;stroke-width:1.0;" x1="163" x2="163" y1="681.7188" y2="694.7188"/><line style="stroke:#181818;stroke-width:1.0;" x1="122" x2="163" y1="694.7188" y2="694.7188"/><polygon fill="#181818" points="132,690.7188,122,694.7188,132,698.7188,128,694.7188" style="stroke:#181818;stroke-width:1.0;"/><text fill="#000000" font-family="sans-serif" font-size="13" lengthAdjust="spacing" textLength="150" x="128" y="676.6528">Is committee member?</text><line style="stroke:#181818;stroke-width:1.0;" x1="121" x2="163" y1="723.8516" y2="723.8516"/><line style="stroke:#181818;stroke-width:1.0;" x1="163" x2="163" y1="723.8516" y2="736.8516"/><line style="stroke:#181818;stroke-width:1.0;" x1="122" x2="163" y1="736.8516" y2="736.8516"/><polygon fill="#181818" points="132,732.8516,122,736.8516,132,740.8516,128,736.8516" style="stroke:#181818;stroke-width:1.0;"/><text fill="#000000" font-family="sans-serif" font-size="13" lengthAdjust="spacing" textLength="127" x="128" y="718.7856">In cooldown period?</text><path d="M52.5,751.8516 L124.5,751.8516 L124.5,758.9844 L114.5,768.9844 L52.5,768.9844 L52.5,751.8516 " fill="#EEEEEE" style="stroke:#000000;stroke-width:1.5;"/><rect fill="none" height="232.9297" style="stroke:#000000;stroke-width:1.5;" width="616" x="52.5" y="751.8516"/><text fill="#000000" font-family="sans-serif" font-size="13" font-weight="bold" lengthAdjust="spacing" textLength="27" x="67.5" y="764.9185">opt</text><text fill="#000000" font-family="sans-serif" font-size="11" font-weight="bold" lengthAdjust="spacing" textLength="116" x="139.5" y="764.062">[allowed to vote]</text><line style="stroke:#181818;stroke-width:1.0;" x1="121" x2="163" y1="790.1172" y2="790.1172"/><line style="stroke:#181818;stroke-width:1.0;" x1="163" x2="163" y1="790.1172" y2="803.1172"/><line style="stroke:#181818;stroke-width:1.0;" x1="122" x2="163" y1="803.1172" y2="803.1172"/><polygon fill="#181818" points="132,799.1172,122,803.1172,132,807.1172,128,803.1172" style="stroke:#181818;stroke-width:1.0;"/><text fill="#000000" font-family="sans-serif" font-size="13" lengthAdjust="spacing" textLength="145" x="128" y="785.0513">Vote for block in round</text><polygon fill="#181818" points="298,828.25,308,832.25,298,836.25,302,832.25" style="stroke:#181818;stroke-width:1.0;"/><line style="stroke:#181818;stroke-width:1.0;" x1="121" x2="304" y1="832.25" y2="832.25"/><text fill="#000000" font-family="sans-serif" font-size="13" lengthAdjust="spacing" textLength="65" x="128" y="827.1841">Send vote</text><line style="stroke:#181818;stroke-width:1.0;" x1="310" x2="352" y1="861.3828" y2="861.3828"/><line style="stroke:#181818;stroke-width:1.0;" x1="352" x2="352" y1="861.3828" y2="874.3828"/><line style="stroke:#181818;stroke-width:1.0;" x1="311" x2="352" y1="874.3828" y2="874.3828"/><polygon fill="#181818" points="321,870.3828,311,874.3828,321,878.3828,317,874.3828" style="stroke:#181818;stroke-width:1.0;"/><text fill="#000000" font-family="sans-serif" font-size="13" lengthAdjust="spacing" textLength="132" x="317" y="856.3169">Check vote's validity</text><path d="M231,889.3828 L303,889.3828 L303,896.5156 L293,906.5156 L231,906.5156 L231,889.3828 " fill="#EEEEEE" style="stroke:#000000;stroke-width:1.5;"/><rect fill="none" height="88.3984" style="stroke:#000000;stroke-width:1.5;" width="427.5" x="231" y="889.3828"/><text fill="#000000" font-family="sans-serif" font-size="13" font-weight="bold" lengthAdjust="spacing" textLength="27" x="246" y="902.4497">opt</text><text fill="#000000" font-family="sans-serif" font-size="11" font-weight="bold" lengthAdjust="spacing" textLength="76" x="318" y="901.5933">[valid vote]</text><line style="stroke:#181818;stroke-width:1.0;" x1="310" x2="352" y1="927.6484" y2="927.6484"/><line style="stroke:#181818;stroke-width:1.0;" x1="352" x2="352" y1="927.6484" y2="940.6484"/><line style="stroke:#181818;stroke-width:1.0;" x1="311" x2="352" y1="940.6484" y2="940.6484"/><polygon fill="#181818" points="321,936.6484,311,940.6484,321,944.6484,317,940.6484" style="stroke:#181818;stroke-width:1.0;"/><text fill="#000000" font-family="sans-serif" font-size="13" lengthAdjust="spacing" textLength="144" x="317" y="922.5825">Update dangling votes</text><polygon fill="#181818" points="537,965.7813,547,969.7813,537,973.7813,541,969.7813" style="stroke:#181818;stroke-width:1.0;"/><line style="stroke:#181818;stroke-width:1.0;" x1="310" x2="543" y1="969.7813" y2="969.7813"/><text fill="#000000" font-family="sans-serif" font-size="13" lengthAdjust="spacing" textLength="85" x="317" y="964.7153">Forward vote</text><!--SRC=[fL7BJiCm4BpxArQzSE87a0A78YGkfQ8gTpVUDXQEDzZRHlmzwqrf-eYuS8YKxCnEPcVOSq1OOh8PLlYrnrWZR2d1WXncOsgAd2Z0R1we_fo1qEhoPZ2ovs-OhRlC2Msh2uf7UJd1pzJ7QqA7c4Gu1ApPKymmU-C64vnnbqB9IdQdeJ5L1GliOHM8eQh4N742zu_wItXGC0jez7kSlsOTGq3hC3qPwlXyO02k5bPOlC616BEc4KLvetVVS1SJKBbGPQBJrIxX5bD21tLZVHIcCaRcl46vHC6x30SRl9Fu9dZKTZOXzEXt3GFJX7IvJXNqrpg5Hf9iP4L4XbNXtOWlLMhSckAiEsSPmTcu2pxkXeWkY6DXVoSWY2dFRwllj1Ukr3hLQYhWHAqrjQrdHeGMsqtfzfeJXKEXc1A7oPCRwhSXK2zk9C5omcsj7pBLwhLRa0m73zCb7pKcMotOPQbZGyUz_yRyGgctwIHtZFO7]--></g></svg>