<?xml version="1.0" encoding="UTF-8" standalone="no"?>
<!DOCTYPE svg PUBLIC "-//W3C//DTD SVG 1.1//EN"
 "http://www.w3.org/Graphics/SVG/1.1/DTD/svg11.dtd">
<!-- Generated by graphviz version 9.0.0 (20230911.1827)
 -->
<!-- Title: G Pages: 1 -->
<svg width="581pt" height="605pt"
 viewBox="0.00 0.00 581.00 605.00" xmlns="http://www.w3.org/2000/svg" xmlns:xlink="http://www.w3.org/1999/xlink">
<g id="graph0" class="graph" transform="scale(1 1) rotate(0) translate(4 601)">
<title>G</title>
<polygon fill="white" stroke="none" points="-4,4 -4,-601 577,-601 577,4 -4,4"/>
<g id="clust11" class="cluster">
<title>cluster_7</title>
<polygon fill="none" stroke="blue" points="93.5,-512 93.5,-589 465,-589 465,-512 93.5,-512"/>
<text text-anchor="middle" x="279.25" y="-571.7" font-family="Times,serif" font-size="14.00">1 hop</text>
</g>
<g id="clust18" class="cluster">
<title>cluster_13</title>
<polygon fill="none" stroke="blue" points="86,-386 86,-504 264,-504 264,-386 86,-386"/>
<text text-anchor="middle" x="175" y="-486.7" font-family="Times,serif" font-size="14.00">2 hops</text>
</g>
<g id="clust21" class="cluster">
<title>cluster_10</title>
<polygon fill="none" stroke="blue" points="94,-394 94,-471 164,-471 164,-394 94,-394"/>
<text text-anchor="middle" x="129" y="-453.7" font-family="Times,serif" font-size="14.00">1 hop</text>
</g>
<g id="clust22" class="cluster">
<title>cluster_12</title>
<polygon fill="none" stroke="blue" points="186,-394 186,-471 256,-471 256,-394 186,-394"/>
<text text-anchor="middle" x="221" y="-453.7" font-family="Times,serif" font-size="14.00">1 hop</text>
</g>
<g id="clust23" class="cluster">
<title>cluster_21</title>
<polygon fill="none" stroke="blue" points="86,-260 86,-378 366,-378 366,-260 86,-260"/>
<text text-anchor="middle" x="226" y="-360.7" font-family="Times,serif" font-size="14.00">3 hops</text>
</g>
<g id="clust28" class="cluster">
<title>cluster_16</title>
<polygon fill="none" stroke="blue" points="94,-268 94,-345 164,-345 164,-268 94,-268"/>
<text text-anchor="middle" x="129" y="-327.7" font-family="Times,serif" font-size="14.00">1 hop</text>
</g>
<g id="clust29" class="cluster">
<title>cluster_18</title>
<polygon fill="none" stroke="blue" points="186,-268 186,-345 256,-345 256,-268 186,-268"/>
<text text-anchor="middle" x="221" y="-327.7" font-family="Times,serif" font-size="14.00">1 hop</text>
</g>
<g id="clust30" class="cluster">
<title>cluster_20</title>
<polygon fill="none" stroke="blue" points="288,-268 288,-345 358,-345 358,-268 288,-268"/>
<text text-anchor="middle" x="323" y="-327.7" font-family="Times,serif" font-size="14.00">1 hop</text>
</g>
<g id="clust31" class="cluster">
<title>cluster_31</title>
<polygon fill="none" stroke="blue" points="86,-134 86,-252 468,-252 468,-134 86,-134"/>
<text text-anchor="middle" x="277" y="-234.7" font-family="Times,serif" font-size="14.00">4 hops</text>
</g>
<g id="clust38" class="cluster">
<title>cluster_24</title>
<polygon fill="none" stroke="blue" points="94,-142 94,-219 164,-219 164,-142 94,-142"/>
<text text-anchor="middle" x="129" y="-201.7" font-family="Times,serif" font-size="14.00">1 hop</text>
</g>
<g id="clust39" class="cluster">
<title>cluster_26</title>
<polygon fill="none" stroke="blue" points="186,-142 186,-219 256,-219 256,-142 186,-142"/>
<text text-anchor="middle" x="221" y="-201.7" font-family="Times,serif" font-size="14.00">1 hop</text>
</g>
<g id="clust40" class="cluster">
<title>cluster_28</title>
<polygon fill="none" stroke="blue" points="288,-142 288,-219 358,-219 358,-142 288,-142"/>
<text text-anchor="middle" x="323" y="-201.7" font-family="Times,serif" font-size="14.00">1 hop</text>
</g>
<g id="clust41" class="cluster">
<title>cluster_30</title>
<polygon fill="none" stroke="blue" points="390,-142 390,-219 460,-219 460,-142 390,-142"/>
<text text-anchor="middle" x="425" y="-201.7" font-family="Times,serif" font-size="14.00">1 hop</text>
</g>
<g id="clust42" class="cluster">
<title>cluster_43</title>
<polygon fill="none" stroke="blue" points="86,-8 86,-126 565,-126 565,-8 86,-8"/>
<text text-anchor="middle" x="325.5" y="-108.7" font-family="Times,serif" font-size="14.00">5 hops</text>
</g>
<g id="clust51" class="cluster">
<title>cluster_34</title>
<polygon fill="none" stroke="blue" points="94,-16 94,-93 164,-93 164,-16 94,-16"/>
<text text-anchor="middle" x="129" y="-75.7" font-family="Times,serif" font-size="14.00">1 hop</text>
</g>
<g id="clust52" class="cluster">
<title>cluster_36</title>
<polygon fill="none" stroke="blue" points="186,-16 186,-93 256,-93 256,-16 186,-16"/>
<text text-anchor="middle" x="221" y="-75.7" font-family="Times,serif" font-size="14.00">1 hop</text>
</g>
<g id="clust53" class="cluster">
<title>cluster_38</title>
<polygon fill="none" stroke="blue" points="288,-16 288,-93 358,-93 358,-16 288,-16"/>
<text text-anchor="middle" x="323" y="-75.7" font-family="Times,serif" font-size="14.00">1 hop</text>
</g>
<g id="clust54" class="cluster">
<title>cluster_40</title>
<polygon fill="none" stroke="blue" points="390,-16 390,-93 460,-93 460,-16 390,-16"/>
<text text-anchor="middle" x="425" y="-75.7" font-family="Times,serif" font-size="14.00">1 hop</text>
</g>
<g id="clust55" class="cluster">
<title>cluster_42</title>
<polygon fill="none" stroke="blue" points="487,-16 487,-93 557,-93 557,-16 487,-16"/>
<text text-anchor="middle" x="522" y="-75.7" font-family="Times,serif" font-size="14.00">1 hop</text>
</g>
<!-- 1 -->
<g id="node1" class="node">
<title>1</title>
<ellipse fill="lightgrey" stroke="black" cx="18" cy="-294" rx="18" ry="18"/>
<text text-anchor="middle" x="18" y="-288.95" font-family="Times,serif" font-size="14.00">+</text>
</g>
<!-- 3 -->
<g id="node2" class="node">
<title>3</title>
<path fill="none" stroke="black" d="M144.5,-556C144.5,-556 113.5,-556 113.5,-556 107.5,-556 101.5,-550 101.5,-544 101.5,-544 101.5,-532 101.5,-532 101.5,-526 107.5,-520 113.5,-520 113.5,-520 144.5,-520 144.5,-520 150.5,-520 156.5,-526 156.5,-532 156.5,-532 156.5,-544 156.5,-544 156.5,-550 150.5,-556 144.5,-556"/>
<text text-anchor="middle" x="129" y="-532.95" font-family="Times,serif" font-size="14.00">req hdr</text>
</g>
<!-- 1&#45;&gt;3 -->
<g id="edge1" class="edge">
<title>1&#45;&gt;3</title>
<path fill="none" stroke="black" d="M23.92,-311.28C33.59,-344.15 56.72,-417.53 86,-475 92.17,-487.11 100.2,-499.71 107.59,-510.43"/>
<polygon fill="black" stroke="black" points="104.62,-512.29 113.25,-518.44 110.34,-508.25 104.62,-512.29"/>
<text text-anchor="middle" x="66" y="-459.2" font-family="Times,serif" font-size="14.00">0.01</text>
</g>
<!-- 9 -->
<g id="node6" class="node">
<title>9</title>
<path fill="none" stroke="black" d="M144,-438C144,-438 114,-438 114,-438 108,-438 102,-432 102,-426 102,-426 102,-414 102,-414 102,-408 108,-402 114,-402 114,-402 144,-402 144,-402 150,-402 156,-408 156,-414 156,-414 156,-426 156,-426 156,-432 150,-438 144,-438"/>
<text text-anchor="middle" x="129" y="-414.95" font-family="Times,serif" font-size="14.00">1 hop</text>
</g>
<!-- 1&#45;&gt;9 -->
<g id="edge2" class="edge">
<title>1&#45;&gt;9</title>
<path fill="none" stroke="black" d="M30.66,-307.48C48.33,-327.9 82.21,-367.07 104.97,-393.37"/>
<polygon fill="black" stroke="black" points="102.04,-395.34 111.23,-400.61 107.33,-390.76 102.04,-395.34"/>
<text text-anchor="middle" x="66" y="-363.2" font-family="Times,serif" font-size="14.00">0.05</text>
</g>
<!-- 15 -->
<g id="node8" class="node">
<title>15</title>
<path fill="none" stroke="black" d="M144,-312C144,-312 114,-312 114,-312 108,-312 102,-306 102,-300 102,-300 102,-288 102,-288 102,-282 108,-276 114,-276 114,-276 144,-276 144,-276 150,-276 156,-282 156,-288 156,-288 156,-300 156,-300 156,-306 150,-312 144,-312"/>
<text text-anchor="middle" x="129" y="-288.95" font-family="Times,serif" font-size="14.00">1 hop</text>
</g>
<!-- 1&#45;&gt;15 -->
<g id="edge3" class="edge">
<title>1&#45;&gt;15</title>
<path fill="none" stroke="black" d="M36.03,-294C50.54,-294 71.92,-294 90.41,-294"/>
<polygon fill="black" stroke="black" points="90.24,-297.5 100.24,-294 90.24,-290.5 90.24,-297.5"/>
<text text-anchor="middle" x="66" y="-297.2" font-family="Times,serif" font-size="14.00">0.34</text>
</g>
<!-- 23 -->
<g id="node11" class="node">
<title>23</title>
<path fill="none" stroke="black" d="M144,-186C144,-186 114,-186 114,-186 108,-186 102,-180 102,-174 102,-174 102,-162 102,-162 102,-156 108,-150 114,-150 114,-150 144,-150 144,-150 150,-150 156,-156 156,-162 156,-162 156,-174 156,-174 156,-180 150,-186 144,-186"/>
<text text-anchor="middle" x="129" y="-162.95" font-family="Times,serif" font-size="14.00">1 hop</text>
</g>
<!-- 1&#45;&gt;23 -->
<g id="edge4" class="edge">
<title>1&#45;&gt;23</title>
<path fill="none" stroke="black" d="M30.66,-280.52C48.33,-260.1 82.21,-220.93 104.97,-194.63"/>
<polygon fill="black" stroke="black" points="107.33,-197.24 111.23,-187.39 102.04,-192.66 107.33,-197.24"/>
<text text-anchor="middle" x="66" y="-256.2" font-family="Times,serif" font-size="14.00">0.59</text>
</g>
<!-- 33 -->
<g id="node15" class="node">
<title>33</title>
<path fill="none" stroke="black" d="M144,-60C144,-60 114,-60 114,-60 108,-60 102,-54 102,-48 102,-48 102,-36 102,-36 102,-30 108,-24 114,-24 114,-24 144,-24 144,-24 150,-24 156,-30 156,-36 156,-36 156,-48 156,-48 156,-54 150,-60 144,-60"/>
<text text-anchor="middle" x="129" y="-36.95" font-family="Times,serif" font-size="14.00">1 hop</text>
</g>
<!-- 1&#45;&gt;33 -->
<g id="edge5" class="edge">
<title>1&#45;&gt;33</title>
<path fill="none" stroke="black" d="M25.5,-277.14C32.38,-259.46 43.64,-230.9 54,-206.5 74.46,-158.33 99.74,-102.95 114.83,-70.3"/>
<polygon fill="black" stroke="black" points="117.87,-72.06 118.9,-61.52 111.52,-69.12 117.87,-72.06"/>
<text text-anchor="middle" x="66" y="-209.2" font-family="Times,serif" font-size="14.00">0.01</text>
</g>
<!-- 4 -->
<g id="node3" class="node">
<title>4</title>
<path fill="none" stroke="black" d="M236.5,-556C236.5,-556 205.5,-556 205.5,-556 199.5,-556 193.5,-550 193.5,-544 193.5,-544 193.5,-532 193.5,-532 193.5,-526 199.5,-520 205.5,-520 205.5,-520 236.5,-520 236.5,-520 242.5,-520 248.5,-526 248.5,-532 248.5,-532 248.5,-544 248.5,-544 248.5,-550 242.5,-556 236.5,-556"/>
<text text-anchor="middle" x="221" y="-532.95" font-family="Times,serif" font-size="14.00">rep hdr</text>
</g>
<!-- 3&#45;&gt;4 -->
<g id="edge6" class="edge">
<title>3&#45;&gt;4</title>
<path fill="none" stroke="black" d="M156.52,-538C164.43,-538 173.27,-538 181.77,-538"/>
<polygon fill="black" stroke="black" points="181.54,-541.5 191.54,-538 181.54,-534.5 181.54,-541.5"/>
</g>
<!-- 5 -->
<g id="node4" class="node">
<title>5</title>
<path fill="none" stroke="black" d="M343,-556C343,-556 303,-556 303,-556 297,-556 291,-550 291,-544 291,-544 291,-532 291,-532 291,-526 297,-520 303,-520 303,-520 343,-520 343,-520 349,-520 355,-526 355,-532 355,-532 355,-544 355,-544 355,-550 349,-556 343,-556"/>
<text text-anchor="middle" x="323" y="-532.95" font-family="Times,serif" font-size="14.00">req body</text>
</g>
<!-- 4&#45;&gt;5 -->
<g id="edge7" class="edge">
<title>4&#45;&gt;5</title>
<path fill="none" stroke="black" d="M248.8,-538C258.13,-538 268.85,-538 279.15,-538"/>
<polygon fill="black" stroke="black" points="279,-541.5 289,-538 279,-534.5 279,-541.5"/>
</g>
<!-- 6 -->
<g id="node5" class="node">
<title>6</title>
<path fill="none" stroke="black" d="M445,-556C445,-556 405,-556 405,-556 399,-556 393,-550 393,-544 393,-544 393,-532 393,-532 393,-526 399,-520 405,-520 405,-520 445,-520 445,-520 451,-520 457,-526 457,-532 457,-532 457,-544 457,-544 457,-550 451,-556 445,-556"/>
<text text-anchor="middle" x="425" y="-532.95" font-family="Times,serif" font-size="14.00">rep body</text>
</g>
<!-- 5&#45;&gt;6 -->
<g id="edge8" class="edge">
<title>5&#45;&gt;6</title>
<path fill="none" stroke="black" d="M355.37,-538C363.65,-538 372.73,-538 381.5,-538"/>
<polygon fill="black" stroke="black" points="381.23,-541.5 391.23,-538 381.23,-534.5 381.23,-541.5"/>
</g>
<!-- 11 -->
<g id="node7" class="node">
<title>11</title>
<path fill="none" stroke="black" d="M236,-438C236,-438 206,-438 206,-438 200,-438 194,-432 194,-426 194,-426 194,-414 194,-414 194,-408 200,-402 206,-402 206,-402 236,-402 236,-402 242,-402 248,-408 248,-414 248,-414 248,-426 248,-426 248,-432 242,-438 236,-438"/>
<text text-anchor="middle" x="221" y="-414.95" font-family="Times,serif" font-size="14.00">1 hop</text>
</g>
<!-- 9&#45;&gt;11 -->
<g id="edge9" class="edge">
<title>9&#45;&gt;11</title>
<path fill="none" stroke="black" d="M156.03,-420C164.26,-420 173.53,-420 182.4,-420"/>
<polygon fill="black" stroke="black" points="182.2,-423.5 192.2,-420 182.2,-416.5 182.2,-423.5"/>
</g>
<!-- 17 -->
<g id="node9" class="node">
<title>17</title>
<path fill="none" stroke="black" d="M236,-312C236,-312 206,-312 206,-312 200,-312 194,-306 194,-300 194,-300 194,-288 194,-288 194,-282 200,-276 206,-276 206,-276 236,-276 236,-276 242,-276 248,-282 248,-288 248,-288 248,-300 248,-300 248,-306 242,-312 236,-312"/>
<text text-anchor="middle" x="221" y="-288.95" font-family="Times,serif" font-size="14.00">1 hop</text>
</g>
<!-- 15&#45;&gt;17 -->
<g id="edge10" class="edge">
<title>15&#45;&gt;17</title>
<path fill="none" stroke="black" d="M156.03,-294C164.26,-294 173.53,-294 182.4,-294"/>
<polygon fill="black" stroke="black" points="182.2,-297.5 192.2,-294 182.2,-290.5 182.2,-297.5"/>
</g>
<!-- 19 -->
<g id="node10" class="node">
<title>19</title>
<path fill="none" stroke="black" d="M338,-312C338,-312 308,-312 308,-312 302,-312 296,-306 296,-300 296,-300 296,-288 296,-288 296,-282 302,-276 308,-276 308,-276 338,-276 338,-276 344,-276 350,-282 350,-288 350,-288 350,-300 350,-300 350,-306 344,-312 338,-312"/>
<text text-anchor="middle" x="323" y="-288.95" font-family="Times,serif" font-size="14.00">1 hop</text>
</g>
<!-- 17&#45;&gt;19 -->
<g id="edge11" class="edge">
<title>17&#45;&gt;19</title>
<path fill="none" stroke="black" d="M248.27,-294C259.21,-294 272.12,-294 284.05,-294"/>
<polygon fill="black" stroke="black" points="284.04,-297.5 294.04,-294 284.04,-290.5 284.04,-297.5"/>
</g>
<!-- 25 -->
<g id="node12" class="node">
<title>25</title>
<path fill="none" stroke="black" d="M236,-186C236,-186 206,-186 206,-186 200,-186 194,-180 194,-174 194,-174 194,-162 194,-162 194,-156 200,-150 206,-150 206,-150 236,-150 236,-150 242,-150 248,-156 248,-162 248,-162 248,-174 248,-174 248,-180 242,-186 236,-186"/>
<text text-anchor="middle" x="221" y="-162.95" font-family="Times,serif" font-size="14.00">1 hop</text>
</g>
<!-- 23&#45;&gt;25 -->
<g id="edge12" class="edge">
<title>23&#45;&gt;25</title>
<path fill="none" stroke="black" d="M156.03,-168C164.26,-168 173.53,-168 182.4,-168"/>
<polygon fill="black" stroke="black" points="182.2,-171.5 192.2,-168 182.2,-164.5 182.2,-171.5"/>
</g>
<!-- 27 -->
<g id="node13" class="node">
<title>27</title>
<path fill="none" stroke="black" d="M338,-186C338,-186 308,-186 308,-186 302,-186 296,-180 296,-174 296,-174 296,-162 296,-162 296,-156 302,-150 308,-150 308,-150 338,-150 338,-150 344,-150 350,-156 350,-162 350,-162 350,-174 350,-174 350,-180 344,-186 338,-186"/>
<text text-anchor="middle" x="323" y="-162.95" font-family="Times,serif" font-size="14.00">1 hop</text>
</g>
<!-- 25&#45;&gt;27 -->
<g id="edge13" class="edge">
<title>25&#45;&gt;27</title>
<path fill="none" stroke="black" d="M248.27,-168C259.21,-168 272.12,-168 284.05,-168"/>
<polygon fill="black" stroke="black" points="284.04,-171.5 294.04,-168 284.04,-164.5 284.04,-171.5"/>
</g>
<!-- 29 -->
<g id="node14" class="node">
<title>29</title>
<path fill="none" stroke="black" d="M440,-186C440,-186 410,-186 410,-186 404,-186 398,-180 398,-174 398,-174 398,-162 398,-162 398,-156 404,-150 410,-150 410,-150 440,-150 440,-150 446,-150 452,-156 452,-162 452,-162 452,-174 452,-174 452,-180 446,-186 440,-186"/>
<text text-anchor="middle" x="425" y="-162.95" font-family="Times,serif" font-size="14.00">1 hop</text>
</g>
<!-- 27&#45;&gt;29 -->
<g id="edge14" class="edge">
<title>27&#45;&gt;29</title>
<path fill="none" stroke="black" d="M350.27,-168C361.21,-168 374.12,-168 386.05,-168"/>
<polygon fill="black" stroke="black" points="386.04,-171.5 396.04,-168 386.04,-164.5 386.04,-171.5"/>
</g>
<!-- 35 -->
<g id="node16" class="node">
<title>35</title>
<path fill="none" stroke="black" d="M236,-60C236,-60 206,-60 206,-60 200,-60 194,-54 194,-48 194,-48 194,-36 194,-36 194,-30 200,-24 206,-24 206,-24 236,-24 236,-24 242,-24 248,-30 248,-36 248,-36 248,-48 248,-48 248,-54 242,-60 236,-60"/>
<text text-anchor="middle" x="221" y="-36.95" font-family="Times,serif" font-size="14.00">1 hop</text>
</g>
<!-- 33&#45;&gt;35 -->
<g id="edge15" class="edge">
<title>33&#45;&gt;35</title>
<path fill="none" stroke="black" d="M156.03,-42C164.26,-42 173.53,-42 182.4,-42"/>
<polygon fill="black" stroke="black" points="182.2,-45.5 192.2,-42 182.2,-38.5 182.2,-45.5"/>
</g>
<!-- 37 -->
<g id="node17" class="node">
<title>37</title>
<path fill="none" stroke="black" d="M338,-60C338,-60 308,-60 308,-60 302,-60 296,-54 296,-48 296,-48 296,-36 296,-36 296,-30 302,-24 308,-24 308,-24 338,-24 338,-24 344,-24 350,-30 350,-36 350,-36 350,-48 350,-48 350,-54 344,-60 338,-60"/>
<text text-anchor="middle" x="323" y="-36.95" font-family="Times,serif" font-size="14.00">1 hop</text>
</g>
<!-- 35&#45;&gt;37 -->
<g id="edge16" class="edge">
<title>35&#45;&gt;37</title>
<path fill="none" stroke="black" d="M248.27,-42C259.21,-42 272.12,-42 284.05,-42"/>
<polygon fill="black" stroke="black" points="284.04,-45.5 294.04,-42 284.04,-38.5 284.04,-45.5"/>
</g>
<!-- 39 -->
<g id="node18" class="node">
<title>39</title>
<path fill="none" stroke="black" d="M440,-60C440,-60 410,-60 410,-60 404,-60 398,-54 398,-48 398,-48 398,-36 398,-36 398,-30 404,-24 410,-24 410,-24 440,-24 440,-24 446,-24 452,-30 452,-36 452,-36 452,-48 452,-48 452,-54 446,-60 440,-60"/>
<text text-anchor="middle" x="425" y="-36.95" font-family="Times,serif" font-size="14.00">1 hop</text>
</g>
<!-- 37&#45;&gt;39 -->
<g id="edge17" class="edge">
<title>37&#45;&gt;39</title>
<path fill="none" stroke="black" d="M350.27,-42C361.21,-42 374.12,-42 386.05,-42"/>
<polygon fill="black" stroke="black" points="386.04,-45.5 396.04,-42 386.04,-38.5 386.04,-45.5"/>
</g>
<!-- 41 -->
<g id="node19" class="node">
<title>41</title>
<path fill="none" stroke="black" d="M537,-60C537,-60 507,-60 507,-60 501,-60 495,-54 495,-48 495,-48 495,-36 495,-36 495,-30 501,-24 507,-24 507,-24 537,-24 537,-24 543,-24 549,-30 549,-36 549,-36 549,-48 549,-48 549,-54 543,-60 537,-60"/>
<text text-anchor="middle" x="522" y="-36.95" font-family="Times,serif" font-size="14.00">1 hop</text>
</g>
<!-- 39&#45;&gt;41 -->
<g id="edge18" class="edge">
<title>39&#45;&gt;41</title>
<path fill="none" stroke="black" d="M452.46,-42C462.04,-42 473.04,-42 483.39,-42"/>
<polygon fill="black" stroke="black" points="483.17,-45.5 493.17,-42 483.17,-38.5 483.17,-45.5"/>
</g>
</g>
</svg>
