<svg width="263" height="153" viewBox="0 0 263 153" fill="none" xmlns="http://www.w3.org/2000/svg" style="width: 100%; height: 100%;">
<g clip-path="url(#clip0_35_3149)">
<path d="M260.887 120.005C261.398 115.261 262.671 108.178 259.183 104.49C255.376 100.464 248.065 99.999 242.667 102.291C237.27 104.583 234.261 108.85 231.43 113.439C233.496 110.229 233.978 106.785 234.269 103.12C234.651 98.299 232.465 92.519 227.045 91.348C224.732 90.848 222.28 91.317 220.049 92.044C213.335 94.234 207.872 98.702 203.779 103.8C199.686 108.898 195.539 115.785 192.926 120.696C218.345 120.696 231.508 120.006 260.886 120.006L260.887 120.005Z" fill="#E3E3FF" stroke="#010101" stroke-width="1.5" stroke-linecap="round" stroke-linejoin="round"></path>
<path d="M88.996 61.994C83.558 56.496 77.178 50.054 71.741 44.557C65.889 38.64 59.777 32.552 51.986 29.651C44.195 26.75 34.213 27.988 29.355 34.749C24.633 41.32 26.232 50.575 29.747 57.867C24.781 50.587 16.722 44.432 7.96801 45.288C6.66801 45.415 5.35801 45.705 4.23601 46.374C1.69301 47.891 0.585014 51.124 0.770014 54.085C0.955014 57.046 2.20401 59.821 5.83301 61.818C38.095 61.818 50.155 61.994 88.996 61.994Z" fill="#E3E3FF" stroke="#010101" stroke-width="1.5" stroke-linecap="round" stroke-linejoin="round"></path>
<path d="M209.17 90.234C208.579 96.98 207.063 103.623 204.827 109.881C203.118 114.687 200.985 119.274 198.505 123.514C194.624 130.17 183.266 146.887 156.744 151.05C150.319 152.052 143.792 152.284 137.316 151.77C123.554 150.691 110.037 146.258 98.369 138.908C95.928 137.366 93.576 135.708 91.315 133.922C83.605 127.844 76.937 120.34 72.375 111.641C61.916 91.699 63.676 66.642 74.161 46.713C79.763 36.074 87.55 26.09 97.907 20.076C98.717 19.601 99.552 19.151 100.4 18.727C115.511 11.184 129.119 8.55 141.171 9.231C176.507 11.274 198.454 41.946 205.637 61.426C209.055 70.716 210.057 80.585 209.171 90.234H209.17Z" fill="#1F5B3B" stroke="#010101" stroke-width="1.5" stroke-linecap="round" stroke-linejoin="round"></path>
<path d="M209.17 90.234C201.859 92.598 193.841 91.892 186.362 90.041C180.593 88.615 174.631 86.25 171.225 81.38C165.905 73.735 168.668 62.812 164.364 54.563C160.226 46.596 150.705 43.127 144.781 36.394C140.322 31.331 138.086 24.38 138.742 17.659C139.038 14.729 139.873 11.864 141.171 9.23001C176.507 11.273 198.454 41.945 205.637 61.425C209.055 70.715 210.057 80.584 209.171 90.233L209.17 90.234Z" fill="#55D087" stroke="#010101" stroke-width="1.5" stroke-linecap="round" stroke-linejoin="round"></path>
<path d="M204.827 109.881C203.118 114.687 200.985 119.274 198.505 123.514C194.624 130.17 183.266 146.887 156.744 151.05C150.319 152.052 143.792 152.284 137.316 151.77C136.044 148.005 135.119 144.137 134.772 140.18C134.13 132.727 135.761 124.838 140.477 119.03C145.206 113.222 153.326 109.958 160.484 112.117C163.966 113.171 167.063 115.381 170.635 116.01C177.754 117.295 184.256 112.194 191.156 110.035C195.602 108.647 200.356 108.686 204.828 109.881H204.827Z" fill="#55D087" stroke="#010101" stroke-width="1.5" stroke-linecap="round" stroke-linejoin="round"></path>
<path d="M121.144 115.033C113.414 132.144 105.115 132.308 102.455 135.335C101.247 136.71 99.859 137.879 98.369 138.907C95.928 137.365 93.576 135.707 91.315 133.921C83.605 127.843 76.937 120.339 72.375 111.64C61.916 91.698 63.676 66.641 74.161 46.712C79.763 36.073 87.55 26.089 97.907 20.075C105.655 24.765 111.579 32.565 113.159 41.508C114.894 51.261 112.118 61.964 116.59 70.818C118.723 75.033 122.349 85.876 123.454 90.476C124.7 95.603 123.315 110.227 121.144 115.033Z" fill="#55D087" stroke="#010101" stroke-width="1.5" stroke-linecap="round" stroke-linejoin="round"></path>
<path d="M179.937 0.801993C160.656 2.18499 165.591 23.643 169.3 30.998C171.617 35.591 176.257 43.685 178.971 47.589C179.867 48.879 180.764 50.168 181.66 51.458C184.28 46.806 187.347 42.029 190.075 37.066C192.759 32.183 195.142 27.035 196.018 21.532C196.593 17.921 195.987 -0.349007 179.938 0.801993H179.937ZM189.912 18.269C189.164 21.052 186.854 23.326 184.096 24.161C181.338 24.996 178.221 24.418 175.861 22.764C174.656 21.919 173.624 20.786 173.068 19.424C172.632 18.357 172.501 17.182 172.562 16.031C172.719 13.051 174.14 10.09 176.524 8.29399C180.637 5.19399 185.613 7.96799 187.918 9.94699C190.104 11.824 190.66 15.486 189.912 18.269Z" fill="#e6b104" stroke="#010101" stroke-width="1.5" stroke-linecap="round" stroke-linejoin="round"></path>
<path d="M71.99 36.692C52.709 38.075 57.644 59.533 61.353 66.888C63.669 71.481 68.31 79.575 71.024 83.479C71.92 84.769 72.817 86.058 73.713 87.348C76.333 82.696 79.4 77.919 82.128 72.956C84.812 68.073 87.195 62.925 88.071 57.422C88.646 53.811 88.039 35.541 71.99 36.692ZM81.965 54.159C81.217 56.942 78.907 59.216 76.149 60.051C73.391 60.886 70.274 60.308 67.914 58.654C66.709 57.809 65.677 56.676 65.121 55.314C64.685 54.247 64.554 53.072 64.615 51.921C64.772 48.94 66.193 45.98 68.577 44.184C72.69 41.084 77.666 43.858 79.971 45.837C82.157 47.714 82.713 51.376 81.965 54.159Z" fill="#e6b104" stroke="#010101" stroke-width="1.5" stroke-linecap="round" stroke-linejoin="round"></path>
<path d="M150.926 80.616C131.645 81.999 136.58 103.457 140.289 110.812C142.605 115.405 147.246 123.499 149.96 127.404C150.856 128.694 151.753 129.983 152.649 131.273C155.269 126.621 158.336 121.844 161.064 116.881C163.748 111.998 166.131 106.85 167.007 101.347C167.582 97.736 166.976 79.466 150.927 80.617L150.926 80.616ZM160.901 98.083C160.153 100.866 157.843 103.14 155.085 103.975C152.327 104.81 149.21 104.232 146.85 102.578C145.645 101.733 144.613 100.6 144.057 99.238C143.621 98.171 143.49 96.996 143.551 95.845C143.708 92.865 145.129 89.904 147.513 88.108C151.626 85.008 156.602 87.782 158.907 89.761C161.093 91.638 161.649 95.3 160.901 98.083Z" fill="#e6b104" stroke="#010101" stroke-width="1.5" stroke-linecap="round" stroke-linejoin="round"></path>
<path d="M69.722 108.043C53.145 121.885 38.956 149.698 61.705 146.026C137.789 133.745 249.95 51.675 237.534 35.98C234.035 31.556 214.539 30.188 195.414 42.236" stroke="#010101" stroke-width="1.5" stroke-linecap="round" stroke-linejoin="round"></path>
</g>
<defs>
<clipPath id="clip0_35_3149">
<rect width="262.29" height="152.785" fill="white"></rect>
</clipPath>
</defs>
</svg>