<svg id="visual" viewBox="0 0 1920 100" width="1920" height="100" xmlns="http://www.w3.org/2000/svg" xmlns:xlink="http://www.w3.org/1999/xlink" version="1.1"><rect x="0" y="0" width="1920" height="100" fill="#050F0A"></rect><path d="M0 72L91 33L183 54L274 35L366 66L457 33L549 53L640 20L731 65L823 70L914 56L1006 67L1097 58L1189 67L1280 41L1371 60L1463 27L1554 33L1646 33L1737 15L1829 29L1920 47L1920 0L1829 0L1737 0L1646 0L1554 0L1463 0L1371 0L1280 0L1189 0L1097 0L1006 0L914 0L823 0L731 0L640 0L549 0L457 0L366 0L274 0L183 0L91 0L0 0Z" fill="#0A1E14" stroke-linecap="square" stroke-linejoin="bevel"></path></svg>