<svg width="320" height="183" viewBox="0 0 320 183" fill="none" xmlns="http://www.w3.org/2000/svg" style="width: 100%; height: 100%;">
<g clip-path="url(#clip0_35_3200)">
<path d="M91.557 179.732C86.077 167.335 80.598 154.939 75.118 142.542C71.282 133.863 67.012 124.671 58.955 119.658C54.608 116.954 48.555 115.875 44.588 119.109C41.799 121.383 40.777 125.149 40.167 128.695C37.125 146.384 40.641 165.124 50.925 180.819C64.648 181.434 79.254 180.311 91.557 179.732Z" fill="#55D087" stroke="#010101" stroke-width="1.5" stroke-linecap="round" stroke-linejoin="round"></path>
<path d="M50.608 123.295C54.947 142.128 60.389 160.706 66.897 178.903" stroke="#010101" stroke-width="1.5" stroke-linecap="round" stroke-linejoin="round"></path>
<path d="M58.674 181.096C53.538 171.034 48.388 160.949 42.19 151.504C37.728 144.706 32.34 137.954 24.752 135.03C22.07 133.996 18.96 133.513 16.379 134.778C13.459 136.209 11.931 139.535 11.452 142.751C10.41 149.741 13.251 156.698 16.487 162.982C19.546 168.922 23.015 174.65 28.172 180.584C40.552 180.742 49.312 180.977 58.674 181.097V181.096Z" fill="#55D087" stroke="#010101" stroke-width="1.5" stroke-linecap="round" stroke-linejoin="round"></path>
<path d="M19.66 136.849C26.176 151.624 33.736 165.938 42.263 179.651L19.66 136.849Z" fill="#55D087"></path>
<path d="M19.66 136.849C26.176 151.624 33.736 165.938 42.263 179.651" stroke="#010101" stroke-width="1.5" stroke-linecap="round" stroke-linejoin="round"></path>
<path d="M246.694 172.77C256.744 131.067 264.991 90.563 275.532 46.235C276.327 42.891 273.779 39.68 270.342 39.687C207.646 39.812 162.351 41.087 104.619 41.188C101.707 41.193 99.182 43.203 98.535 46.043C89.585 85.291 79.107 131.289 72.876 172.434C127.469 172.434 187.534 172.771 246.695 172.771L246.694 172.77Z" fill="#1F5B3B" stroke="#010101" stroke-width="1.5" stroke-linecap="round" stroke-linejoin="round"></path>
<path d="M238.771 164.982C248.2 126.991 255.994 89.631 266.105 48.895C205.306 48.895 161.797 50.684 106.219 50.684C98.0091 85.656 87.9471 127.954 82.1431 165.166C130.971 165.166 185.858 164.982 238.771 164.982Z" fill="white" stroke="#010101" stroke-width="1.5" stroke-linecap="round" stroke-linejoin="round"></path>
<path d="M205.98 135.587C210.627 116.866 214.467 98.457 219.449 78.383C189.489 78.383 168.049 79.265 140.662 79.265C136.616 96.498 131.658 117.341 128.798 135.678C152.859 135.678 179.906 135.587 205.98 135.587Z" fill="#E3E3FF" stroke="#010101" stroke-width="1.5" stroke-linecap="round" stroke-linejoin="round"></path>
<path d="M246.553 172.263C246.425 173.086 246.363 173.811 246.336 174.481C246.185 178.309 243.026 181.327 239.194 181.326C158.08 181.314 87.367 181.105 5.28403 181.095C2.27703 181.095 0.100032 178.215 0.926032 175.324C0.935032 175.294 0.943032 175.264 0.952032 175.235C1.52003 173.248 3.35203 171.896 5.41803 171.951C38.998 172.846 191.295 172.262 246.553 172.262V172.263Z" fill="#1F5B3B" stroke="#010101" stroke-width="1.5" stroke-linecap="round" stroke-linejoin="round"></path>
<path d="M123.651 172.236C122.507 172.441 121.507 173.205 120.877 174.181C120.247 175.157 119.964 176.328 119.921 177.489C119.89 178.317 119.986 179.179 120.41 179.891C120.834 180.603 121.643 181.129 122.465 181.026" stroke="#010101" stroke-width="1.5" stroke-linecap="round" stroke-linejoin="round"></path>
<path d="M140.131 79.957C150.406 92.355 161.46 104.107 173.206 115.122C189.11 103.739 204.464 91.588 219.195 78.725" stroke="#010101" stroke-width="1.5" stroke-linecap="round" stroke-linejoin="round"></path>
<path d="M208.594 120.736C193.786 118.38 191.964 134.708 195.413 139.705C198.456 144.115 202.505 144.712 207.043 144.865C210.053 144.967 213.207 144.417 215.605 142.596C219.667 139.513 220.465 133.312 218.242 128.722C216.02 124.132 211.355 121.316 208.593 120.734L208.594 120.736Z" fill="#e6b104" stroke="#010101" stroke-width="1.5" stroke-linecap="round" stroke-linejoin="round"></path>
<path d="M217.948 17.119C215.144 19.553 213.809 23.627 214.606 27.313C215.403 30.999 218.299 34.139 221.852 35.171C225.405 36.203 232.316 33.811 234.86 31.095C234.219 26.738 225.581 14.036 224.473 13.467C223.578 13.007 221.091 14.275 217.948 17.119Z" fill="white" stroke="#010101" stroke-width="1.5" stroke-linecap="round" stroke-linejoin="round"></path>
<path d="M262.347 13.85L308.346 95.706" stroke="#010101" stroke-width="1.5" stroke-linecap="round" stroke-linejoin="round"></path>
<path d="M266.761 8.38699L313.887 90.597" stroke="#010101" stroke-width="1.5" stroke-linecap="round" stroke-linejoin="round"></path>
<path d="M309.929 96.623C298.746 115.872 274.27 156.592 264.872 174.263" stroke="#010101" stroke-width="1.5" stroke-linecap="round" stroke-linejoin="round"></path>
<path d="M316.655 96.863C302.512 123.765 274.928 169.611 272.356 174.503" stroke="#010101" stroke-width="1.5" stroke-linecap="round" stroke-linejoin="round"></path>
<path d="M286.253 175.417C278.858 174.739 259.938 174.018 252.57 174.939C251.244 175.105 249.859 175.321 248.786 176.119C247.713 176.917 247.091 178.485 247.772 179.637C248.525 180.91 250.296 181.006 251.772 180.951C258.841 180.688 277.362 181.268 284.43 181.005C285.322 180.972 286.234 180.934 287.062 180.601C287.89 180.268 288.631 179.575 288.768 178.693C288.987 177.278 287.847 175.563 286.253 175.417Z" fill="white" stroke="#010101" stroke-width="1.5" stroke-linecap="round" stroke-linejoin="round"></path>
<path d="M263.793 15.607C267 15.607 269.599 13.0053 269.599 9.796C269.599 6.58667 267 3.985 263.793 3.985C260.586 3.985 257.987 6.58667 257.987 9.796C257.987 13.0053 260.586 15.607 263.793 15.607Z" fill="#010101" stroke="#010101" stroke-width="1.5" stroke-linecap="round" stroke-linejoin="round"></path>
<path d="M312.705 101.517C315.912 101.517 318.511 98.9153 318.511 95.706C318.511 92.4967 315.912 89.895 312.705 89.895C309.498 89.895 306.899 92.4967 306.899 95.706C306.899 98.9153 309.498 101.517 312.705 101.517Z" fill="#010101" stroke="#010101" stroke-width="1.5" stroke-linecap="round" stroke-linejoin="round"></path>
<path d="M239.57 12.572L263.084 5.995C263.084 5.995 263.194 5.984 263.25 5.985" stroke="#010101" stroke-width="1.5" stroke-linecap="round" stroke-linejoin="round"></path>
<path d="M243.245 19.231C243.245 19.231 256.836 15.345 264.439 12.903" stroke="#010101" stroke-width="1.5" stroke-linecap="round" stroke-linejoin="round"></path>
<path d="M240.545 43.49C230.929 34.494 218.93 17.422 212.496 4.012C230.399 -4.363 241.783 5.538 244.959 9.787C250.097 16.661 253.319 34.434 240.546 43.491L240.545 43.49Z" fill="white" stroke="#010101" stroke-width="1.5" stroke-linecap="round" stroke-linejoin="round"></path>
</g>
<defs>
<clipPath id="clip0_35_3200">
<rect width="319.261" height="182.076" fill="white"></rect>
</clipPath>
</defs>
</svg>