<?xml version="1.0" encoding="us-ascii" standalone="no"?><svg xmlns="http://www.w3.org/2000/svg" xmlns:xlink="http://www.w3.org/1999/xlink" contentStyleType="text/css" height="1012px" preserveAspectRatio="none" style="width:1740px;height:1012px;background:#FFFFFF;" version="1.1" viewBox="0 0 1740 1012" width="1740px" zoomAndPan="magnify"><defs/><g><text fill="#000000" font-family="sans-serif" font-size="14" font-weight="bold" lengthAdjust="spacing" textLength="214" x="761.5" y="32.9951">Peras Activity at the Node</text><ellipse cx="862.5" cy="57.2969" fill="#222222" rx="10" ry="10" style="stroke:#222222;stroke-width:1.0;"/><polygon fill="#F1F1F1" points="821.5,131.2969,903.5,131.2969,915.5,143.2969,903.5,155.2969,821.5,155.2969,809.5,143.2969,821.5,131.2969" style="stroke:#181818;stroke-width:0.5;"/><text fill="#000000" font-family="sans-serif" font-size="11" lengthAdjust="spacing" textLength="82" x="821.5" y="147.105">Wait for event</text><rect fill="none" height="379.0078" style="stroke:#000000;stroke-width:1.5;" width="458" x="45" y="239.3086"/><path d="M145,239.3086 L145,248.6055 L135,258.6055 L45,258.6055 " fill="none" style="stroke:#000000;stroke-width:1.5;"/><text fill="#000000" font-family="sans-serif" font-size="14" lengthAdjust="spacing" textLength="90" x="48" y="253.3037">Select votes</text><polygon fill="#F1F1F1" points="173.75,357.5742,266.75,357.5742,278.75,369.5742,266.75,381.5742,173.75,381.5742,161.75,369.5742,173.75,357.5742" style="stroke:#181818;stroke-width:0.5;"/><text fill="#000000" font-family="sans-serif" font-size="11" lengthAdjust="spacing" textLength="93" x="173.75" y="373.3823">Is vote expired?</text><text fill="#000000" font-family="sans-serif" font-size="11" lengthAdjust="spacing" textLength="21" x="140.75" y="366.98">yes</text><text fill="#000000" font-family="sans-serif" font-size="11" lengthAdjust="spacing" textLength="14" x="278.75" y="366.98">no</text><rect fill="#F1F1F1" height="33.9688" rx="12.5" ry="12.5" style="stroke:#181818;stroke-width:0.5;" width="97" x="57" y="391.5742"/><text fill="#000000" font-family="sans-serif" font-size="12" lengthAdjust="spacing" textLength="77" x="67" y="412.7129">Discard vote</text><polygon fill="#F1F1F1" points="270,391.5742,400,391.5742,412,404.3789,400,417.1836,270,417.1836,258,404.3789,270,391.5742" style="stroke:#181818;stroke-width:0.5;"/><text fill="#000000" font-family="sans-serif" font-size="11" lengthAdjust="spacing" textLength="130" x="270" y="401.7847">Is a voting opportunity,</text><text fill="#000000" font-family="sans-serif" font-size="11" lengthAdjust="spacing" textLength="112" x="270" y="414.5894">on preferred chain?</text><text fill="#000000" font-family="sans-serif" font-size="11" lengthAdjust="spacing" textLength="21" x="237" y="401.7847">yes</text><text fill="#000000" font-family="sans-serif" font-size="11" lengthAdjust="spacing" textLength="14" x="412" y="401.7847">no</text><rect fill="#F1F1F1" height="33.9688" rx="12.5" ry="12.5" style="stroke:#181818;stroke-width:0.5;" width="128" x="184" y="427.1836"/><text fill="#000000" font-family="sans-serif" font-size="12" lengthAdjust="spacing" textLength="108" x="194" y="448.3223">Add vote to block</text><rect fill="#F1F1F1" height="47.9375" rx="12.5" ry="12.5" style="stroke:#181818;stroke-width:0.5;" width="102" x="371" y="427.1836"/><text fill="#000000" font-family="sans-serif" font-size="12" lengthAdjust="spacing" textLength="61" x="381" y="448.3223">Keep as a</text><text fill="#000000" font-family="sans-serif" font-size="12" lengthAdjust="spacing" textLength="82" x="381" y="462.291">dangling vote</text><polygon fill="#F1F1F1" points="335,481.1211,347,493.1211,335,505.1211,323,493.1211,335,481.1211" style="stroke:#181818;stroke-width:0.5;"/><polygon fill="#F1F1F1" points="220.25,511.1211,232.25,523.1211,220.25,535.1211,208.25,523.1211,220.25,511.1211" style="stroke:#181818;stroke-width:0.5;"/><rect fill="#F1F1F1" height="33.9688" rx="12.5" ry="12.5" style="stroke:#181818;stroke-width:0.5;" width="193" x="123.75" y="275.6055"/><text fill="#000000" font-family="sans-serif" font-size="12" lengthAdjust="spacing" textLength="173" x="133.75" y="296.7441">Consider each dangling vote</text><polygon fill="#F1F1F1" points="125.75,574.3164,314.75,574.3164,326.75,586.3164,314.75,598.3164,125.75,598.3164,113.75,586.3164,125.75,574.3164" style="stroke:#181818;stroke-width:0.5;"/><text fill="#000000" font-family="sans-serif" font-size="11" lengthAdjust="spacing" textLength="189" x="125.75" y="590.1245">More dangling votes to consider?</text><text fill="#000000" font-family="sans-serif" font-size="11" lengthAdjust="spacing" textLength="21" x="326.75" y="583.7222">yes</text><rect fill="#F1F1F1" height="33.9688" rx="12.5" ry="12.5" style="stroke:#181818;stroke-width:0.5;" width="195" x="122.75" y="653.3164"/><text fill="#000000" font-family="sans-serif" font-size="12" lengthAdjust="spacing" textLength="175" x="132.75" y="674.4551">Add block to preferred chain</text><rect fill="#F1F1F1" height="33.9688" rx="12.5" ry="12.5" style="stroke:#181818;stroke-width:0.5;" width="284" x="78.25" y="722.2852"/><text fill="#000000" font-family="sans-serif" font-size="12" lengthAdjust="spacing" textLength="264" x="88.25" y="743.4238">Send preferred chain to downstream peers</text><polygon fill="#F1F1F1" points="166.25,190.9063,274.25,190.9063,286.25,202.9063,274.25,214.9063,166.25,214.9063,154.25,202.9063,166.25,190.9063" style="stroke:#181818;stroke-width:0.5;"/><text fill="#000000" font-family="sans-serif" font-size="11" lengthAdjust="spacing" textLength="21" x="224.25" y="225.1167">yes</text><text fill="#000000" font-family="sans-serif" font-size="11" lengthAdjust="spacing" textLength="108" x="166.25" y="206.7144">Am I a slot leader?</text><text fill="#000000" font-family="sans-serif" font-size="11" lengthAdjust="spacing" textLength="14" x="286.25" y="200.312">no</text><polygon fill="#F1F1F1" points="220.25,780.6563,232.25,792.6563,220.25,804.6563,208.25,792.6563,220.25,780.6563" style="stroke:#181818;stroke-width:0.5;"/><rect fill="none" height="362.1719" style="stroke:#000000;stroke-width:1.5;" width="300" x="527" y="190.9063"/><path d="M680,190.9063 L680,200.2031 L670,210.2031 L527,210.2031 " fill="none" style="stroke:#000000;stroke-width:1.5;"/><text fill="#000000" font-family="sans-serif" font-size="14" lengthAdjust="spacing" textLength="143" x="530" y="204.9014">Determine quorums</text><rect fill="#F1F1F1" height="33.9688" rx="12.5" ry="12.5" style="stroke:#181818;stroke-width:0.5;" width="161" x="596.5" y="227.2031"/><text fill="#000000" font-family="sans-serif" font-size="12" lengthAdjust="spacing" textLength="141" x="606.5" y="248.3418">Iterate from tip of chain</text><rect fill="#F1F1F1" height="33.9688" rx="12.5" ry="12.5" style="stroke:#181818;stroke-width:0.5;" width="222" x="566" y="296.1719"/><text fill="#000000" font-family="sans-serif" font-size="12" lengthAdjust="spacing" textLength="202" x="576" y="317.3105">Consider votes in previous round</text><polygon fill="#F1F1F1" points="586,426.1406,768,426.1406,780,438.1406,768,450.1406,586,450.1406,574,438.1406,586,426.1406" style="stroke:#181818;stroke-width:0.5;"/><text fill="#000000" font-family="sans-serif" font-size="11" lengthAdjust="spacing" textLength="182" x="586" y="441.9487">Any block in round has quorum?</text><text fill="#000000" font-family="sans-serif" font-size="11" lengthAdjust="spacing" textLength="14" x="780" y="435.5464">no</text><rect fill="#F1F1F1" height="47.9375" rx="12.5" ry="12.5" style="stroke:#181818;stroke-width:0.5;" width="280" x="537" y="485.1406"/><text fill="#000000" font-family="sans-serif" font-size="12" lengthAdjust="spacing" textLength="231" x="547" y="506.2793">Voting is allowed if quorum was in last</text><text fill="#000000" font-family="sans-serif" font-size="12" lengthAdjust="spacing" textLength="260" x="547" y="520.248">round or a multiple of the cooldown period</text><rect fill="none" height="180.6797" style="stroke:#000000;stroke-width:1.5;" width="255" x="560" y="676.0781"/><path d="M660,676.0781 L660,685.375 L650,695.375 L560,695.375 " fill="none" style="stroke:#000000;stroke-width:1.5;"/><text fill="#000000" font-family="sans-serif" font-size="14" lengthAdjust="spacing" textLength="90" x="563" y="690.0732">Select block</text><rect fill="#F1F1F1" height="33.9688" rx="12.5" ry="12.5" style="stroke:#181818;stroke-width:0.5;" width="183" x="585.5" y="762.3867"/><text fill="#000000" font-family="sans-serif" font-size="12" lengthAdjust="spacing" textLength="163" x="595.5" y="783.5254">Vote for most recent block</text><polygon fill="#F1F1F1" points="582,712.375,772,712.375,784,725.1797,772,737.9844,582,737.9844,570,725.1797,582,712.375" style="stroke:#181818;stroke-width:0.5;"/><text fill="#000000" font-family="sans-serif" font-size="11" lengthAdjust="spacing" textLength="21" x="681" y="748.1948">yes</text><text fill="#000000" font-family="sans-serif" font-size="11" lengthAdjust="spacing" textLength="190" x="582" y="722.5854">Are there blocks of the preferred</text><text fill="#000000" font-family="sans-serif" font-size="11" lengthAdjust="spacing" textLength="156" x="582" y="735.3901">chain in candidate window?</text><text fill="#000000" font-family="sans-serif" font-size="11" lengthAdjust="spacing" textLength="14" x="784" y="722.5854">no</text><polygon fill="#F1F1F1" points="677,820.7578,689,832.7578,677,844.7578,665,832.7578,677,820.7578" style="stroke:#181818;stroke-width:0.5;"/><polygon fill="#F1F1F1" points="596,627.6758,758,627.6758,770,639.6758,758,651.6758,596,651.6758,584,639.6758,596,627.6758" style="stroke:#181818;stroke-width:0.5;"/><text fill="#000000" font-family="sans-serif" font-size="11" lengthAdjust="spacing" textLength="21" x="681" y="661.8862">yes</text><text fill="#000000" font-family="sans-serif" font-size="11" lengthAdjust="spacing" textLength="162" x="596" y="643.4839">Am I a committee member?</text><text fill="#000000" font-family="sans-serif" font-size="11" lengthAdjust="spacing" textLength="14" x="770" y="637.0815">no</text><polygon fill="#F1F1F1" points="677,876.7578,689,888.7578,677,900.7578,665,888.7578,677,876.7578" style="stroke:#181818;stroke-width:0.5;"/><polygon fill="#F1F1F1" points="601,579.2734,753,579.2734,765,591.2734,753,603.2734,601,603.2734,589,591.2734,601,579.2734" style="stroke:#181818;stroke-width:0.5;"/><text fill="#000000" font-family="sans-serif" font-size="11" lengthAdjust="spacing" textLength="21" x="681" y="613.4839">yes</text><text fill="#000000" font-family="sans-serif" font-size="11" lengthAdjust="spacing" textLength="152" x="601" y="595.0815">Is voting allowed in round?</text><text fill="#000000" font-family="sans-serif" font-size="11" lengthAdjust="spacing" textLength="14" x="765" y="588.6792">no</text><polygon fill="#F1F1F1" points="677,920.7578,689,932.7578,677,944.7578,665,932.7578,677,920.7578" style="stroke:#181818;stroke-width:0.5;"/><rect fill="none" height="355.9766" style="stroke:#000000;stroke-width:1.5;" width="259" x="879" y="190.9063"/><path d="M1128,190.9063 L1128,200.2031 L1118,210.2031 L879,210.2031 " fill="none" style="stroke:#000000;stroke-width:1.5;"/><text fill="#000000" font-family="sans-serif" font-size="14" lengthAdjust="spacing" textLength="239" x="882" y="204.9014">Measure weight of chain received</text><rect fill="#F1F1F1" height="33.9688" rx="12.5" ry="12.5" style="stroke:#181818;stroke-width:0.5;" width="200" x="904" y="227.2031"/><text fill="#000000" font-family="sans-serif" font-size="12" lengthAdjust="spacing" textLength="180" x="914" y="248.3418">Initial weight is length of chain</text><rect fill="#F1F1F1" height="61.9063" rx="12.5" ry="12.5" style="stroke:#181818;stroke-width:0.5;" width="143" x="932.5" y="392.5742"/><text fill="#000000" font-family="sans-serif" font-size="12" lengthAdjust="spacing" textLength="123" x="942.5" y="413.7129">Increment weight by</text><text fill="#000000" font-family="sans-serif" font-size="12" lengthAdjust="spacing" textLength="100" x="942.5" y="427.6816">number of votes</text><text fill="#000000" font-family="sans-serif" font-size="12" lengthAdjust="spacing" textLength="72" x="942.5" y="441.6504">times boost</text><polygon fill="#F1F1F1" points="925,344.1719,1083,344.1719,1095,356.1719,1083,368.1719,925,368.1719,913,356.1719,925,344.1719" style="stroke:#181818;stroke-width:0.5;"/><text fill="#000000" font-family="sans-serif" font-size="11" lengthAdjust="spacing" textLength="14" x="1008" y="378.3823">no</text><text fill="#000000" font-family="sans-serif" font-size="11" lengthAdjust="spacing" textLength="158" x="925" y="359.98">Was the chain in cooldown?</text><text fill="#000000" font-family="sans-serif" font-size="11" lengthAdjust="spacing" textLength="21" x="1095" y="353.5776">yes</text><polygon fill="#F1F1F1" points="1004,478.8828,1016,490.8828,1004,502.8828,992,490.8828,1004,478.8828" style="stroke:#181818;stroke-width:0.5;"/><polygon fill="#F1F1F1" points="937,296.1719,1071,296.1719,1083,308.1719,1071,320.1719,937,320.1719,925,308.1719,937,296.1719" style="stroke:#181818;stroke-width:0.5;"/><text fill="#000000" font-family="sans-serif" font-size="11" lengthAdjust="spacing" textLength="134" x="937" y="311.98">For each block on chain</text><text fill="#000000" font-family="sans-serif" font-size="11" lengthAdjust="spacing" textLength="87" x="838" y="305.5776">no more blocks</text><rect fill="#F1F1F1" height="47.9375" rx="12.5" ry="12.5" style="stroke:#181818;stroke-width:0.5;" width="149" x="929.5" y="623.0898"/><text fill="#000000" font-family="sans-serif" font-size="12" lengthAdjust="spacing" textLength="129" x="939.5" y="644.2285">Adopt received chain</text><text fill="#000000" font-family="sans-serif" font-size="12" lengthAdjust="spacing" textLength="77" x="939.5" y="658.1973">as preferred</text><rect fill="#F1F1F1" height="47.9375" rx="12.5" ry="12.5" style="stroke:#181818;stroke-width:0.5;" width="151" x="928.5" y="706.0273"/><text fill="#000000" font-family="sans-serif" font-size="12" lengthAdjust="spacing" textLength="129" x="938.5" y="727.166">Send preferred chain</text><text fill="#000000" font-family="sans-serif" font-size="12" lengthAdjust="spacing" textLength="131" x="938.5" y="741.1348">to downstream peers</text><polygon fill="#F1F1F1" points="921.5,573.0781,1086.5,573.0781,1098.5,585.8828,1086.5,598.6875,921.5,598.6875,909.5,585.8828,921.5,573.0781" style="stroke:#181818;stroke-width:0.5;"/><text fill="#000000" font-family="sans-serif" font-size="11" lengthAdjust="spacing" textLength="21" x="1008" y="608.8979">yes</text><text fill="#000000" font-family="sans-serif" font-size="11" lengthAdjust="spacing" textLength="146" x="921.5" y="583.2886">Received chain has more</text><text fill="#000000" font-family="sans-serif" font-size="11" lengthAdjust="spacing" textLength="165" x="921.5" y="596.0933">weight than preferred chain?</text><text fill="#000000" font-family="sans-serif" font-size="11" lengthAdjust="spacing" textLength="14" x="1098.5" y="583.2886">no</text><polygon fill="#F1F1F1" points="1004,778.3672,1016,790.3672,1004,802.3672,992,790.3672,1004,778.3672" style="stroke:#181818;stroke-width:0.5;"/><polygon fill="#F1F1F1" points="1329.5,190.9063,1469.5,190.9063,1481.5,202.9063,1469.5,214.9063,1329.5,214.9063,1317.5,202.9063,1329.5,190.9063" style="stroke:#181818;stroke-width:0.5;"/><text fill="#000000" font-family="sans-serif" font-size="11" lengthAdjust="spacing" textLength="140" x="1329.5" y="206.7144">Was vote already seen?</text><text fill="#000000" font-family="sans-serif" font-size="11" lengthAdjust="spacing" textLength="21" x="1296.5" y="200.312">yes</text><text fill="#000000" font-family="sans-serif" font-size="11" lengthAdjust="spacing" textLength="14" x="1481.5" y="200.312">no</text><rect fill="#F1F1F1" height="33.9688" rx="12.5" ry="12.5" style="stroke:#181818;stroke-width:0.5;" width="118" x="1220" y="224.9063"/><text fill="#000000" font-family="sans-serif" font-size="12" lengthAdjust="spacing" textLength="98" x="1230" y="246.0449">Ignore duplicate</text><polygon fill="#F1F1F1" points="1438.5,224.9063,1601.5,224.9063,1613.5,236.9063,1601.5,248.9063,1438.5,248.9063,1426.5,236.9063,1438.5,224.9063" style="stroke:#181818;stroke-width:0.5;"/><text fill="#000000" font-family="sans-serif" font-size="11" lengthAdjust="spacing" textLength="163" x="1438.5" y="240.7144">Is the vote an equivocation?</text><text fill="#000000" font-family="sans-serif" font-size="11" lengthAdjust="spacing" textLength="21" x="1405.5" y="234.312">yes</text><text fill="#000000" font-family="sans-serif" font-size="11" lengthAdjust="spacing" textLength="14" x="1613.5" y="234.312">no</text><rect fill="#F1F1F1" height="47.9375" rx="12.5" ry="12.5" style="stroke:#181818;stroke-width:0.5;" width="97" x="1368" y="258.9063"/><text fill="#000000" font-family="sans-serif" font-size="12" lengthAdjust="spacing" textLength="62" x="1378" y="280.0449">Ignore the</text><text fill="#000000" font-family="sans-serif" font-size="12" lengthAdjust="spacing" textLength="77" x="1378" y="294.0137">equivocation</text><rect fill="#F1F1F1" height="33.9688" rx="12.5" ry="12.5" style="stroke:#181818;stroke-width:0.5;" width="153" x="1547" y="258.9063"/><text fill="#000000" font-family="sans-serif" font-size="12" lengthAdjust="spacing" textLength="133" x="1557" y="280.0449">Add to dangling votes</text><rect fill="#F1F1F1" height="47.9375" rx="12.5" ry="12.5" style="stroke:#181818;stroke-width:0.5;" width="135" x="1556" y="327.875"/><text fill="#000000" font-family="sans-serif" font-size="12" lengthAdjust="spacing" textLength="78" x="1566" y="349.0137">Send vote to</text><text fill="#000000" font-family="sans-serif" font-size="12" lengthAdjust="spacing" textLength="115" x="1566" y="362.9824">downstream peers</text><polygon fill="#F1F1F1" points="1520,381.8125,1532,393.8125,1520,405.8125,1508,393.8125,1520,381.8125" style="stroke:#181818;stroke-width:0.5;"/><polygon fill="#F1F1F1" points="1399.5,411.8125,1411.5,423.8125,1399.5,435.8125,1387.5,423.8125,1399.5,411.8125" style="stroke:#181818;stroke-width:0.5;"/><polygon fill="#F1F1F1" points="862.5,954.7578,862.5,954.7578,874.5,966.7578,862.5,978.7578,862.5,978.7578,850.5,966.7578,862.5,954.7578" style="stroke:#181818;stroke-width:0.5;"/><polygon fill="#F1F1F1" points="849,87.2969,876,87.2969,888,99.2969,876,111.2969,849,111.2969,837,99.2969,849,87.2969" style="stroke:#181818;stroke-width:0.5;"/><text fill="#000000" font-family="sans-serif" font-size="11" lengthAdjust="spacing" textLength="27" x="849" y="103.105">Exit?</text><ellipse cx="24" cy="142.2969" fill="none" rx="11" ry="11" style="stroke:#222222;stroke-width:1.0;"/><ellipse cx="24" cy="142.2969" fill="#222222" rx="6" ry="6" style="stroke:#222222;stroke-width:1.0;"/><line style="stroke:#181818;stroke-width:1.0;" x1="258" x2="248" y1="404.3789" y2="404.3789"/><line style="stroke:#181818;stroke-width:1.0;" x1="248" x2="248" y1="404.3789" y2="427.1836"/><polygon fill="#181818" points="244,417.1836,248,427.1836,252,417.1836,248,421.1836" style="stroke:#181818;stroke-width:1.0;"/><line style="stroke:#181818;stroke-width:1.0;" x1="412" x2="422" y1="404.3789" y2="404.3789"/><line style="stroke:#181818;stroke-width:1.0;" x1="422" x2="422" y1="404.3789" y2="427.1836"/><polygon fill="#181818" points="418,417.1836,422,427.1836,426,417.1836,422,421.1836" style="stroke:#181818;stroke-width:1.0;"/><line style="stroke:#181818;stroke-width:1.0;" x1="248" x2="248" y1="461.1523" y2="493.1211"/><line style="stroke:#181818;stroke-width:1.0;" x1="248" x2="323" y1="493.1211" y2="493.1211"/><polygon fill="#181818" points="313,489.1211,323,493.1211,313,497.1211,317,493.1211" style="stroke:#181818;stroke-width:1.0;"/><line style="stroke:#181818;stroke-width:1.0;" x1="422" x2="422" y1="475.1211" y2="493.1211"/><line style="stroke:#181818;stroke-width:1.0;" x1="422" x2="347" y1="493.1211" y2="493.1211"/><polygon fill="#181818" points="357,489.1211,347,493.1211,357,497.1211,353,493.1211" style="stroke:#181818;stroke-width:1.0;"/><line style="stroke:#181818;stroke-width:1.0;" x1="161.75" x2="105.5" y1="369.5742" y2="369.5742"/><line style="stroke:#181818;stroke-width:1.0;" x1="105.5" x2="105.5" y1="369.5742" y2="391.5742"/><polygon fill="#181818" points="101.5,381.5742,105.5,391.5742,109.5,381.5742,105.5,385.5742" style="stroke:#181818;stroke-width:1.0;"/><line style="stroke:#181818;stroke-width:1.0;" x1="278.75" x2="335" y1="369.5742" y2="369.5742"/><line style="stroke:#181818;stroke-width:1.0;" x1="335" x2="335" y1="369.5742" y2="391.5742"/><polygon fill="#181818" points="331,381.5742,335,391.5742,339,381.5742,335,385.5742" style="stroke:#181818;stroke-width:1.0;"/><line style="stroke:#181818;stroke-width:1.0;" x1="105.5" x2="105.5" y1="425.543" y2="523.1211"/><line style="stroke:#181818;stroke-width:1.0;" x1="105.5" x2="208.25" y1="523.1211" y2="523.1211"/><polygon fill="#181818" points="198.25,519.1211,208.25,523.1211,198.25,527.1211,202.25,523.1211" style="stroke:#181818;stroke-width:1.0;"/><line style="stroke:#181818;stroke-width:1.0;" x1="335" x2="335" y1="505.1211" y2="523.1211"/><line style="stroke:#181818;stroke-width:1.0;" x1="335" x2="232.25" y1="523.1211" y2="523.1211"/><polygon fill="#181818" points="242.25,519.1211,232.25,523.1211,242.25,527.1211,238.25,523.1211" style="stroke:#181818;stroke-width:1.0;"/><line style="stroke:#181818;stroke-width:1.0;" x1="220.25" x2="220.25" y1="309.5742" y2="357.5742"/><polygon fill="#181818" points="216.25,347.5742,220.25,357.5742,224.25,347.5742,220.25,351.5742" style="stroke:#181818;stroke-width:1.0;"/><line style="stroke:#181818;stroke-width:1.0;" x1="326.75" x2="487" y1="586.3164" y2="586.3164"/><polygon fill="#181818" points="483,453.8555,487,443.8555,491,453.8555,487,449.8555" style="stroke:#181818;stroke-width:1.0;"/><line style="stroke:#181818;stroke-width:1.0;" x1="487" x2="487" y1="292.5898" y2="586.3164"/><line style="stroke:#181818;stroke-width:1.0;" x1="487" x2="316.75" y1="292.5898" y2="292.5898"/><polygon fill="#181818" points="326.75,288.5898,316.75,292.5898,326.75,296.5898,322.75,292.5898" style="stroke:#181818;stroke-width:1.0;"/><line style="stroke:#181818;stroke-width:1.0;" x1="220.25" x2="220.25" y1="535.1211" y2="574.3164"/><polygon fill="#181818" points="216.25,564.3164,220.25,574.3164,224.25,564.3164,220.25,568.3164" style="stroke:#181818;stroke-width:1.0;"/><line style="stroke:#181818;stroke-width:1.0;" x1="220.25" x2="220.25" y1="598.3164" y2="653.3164"/><polygon fill="#181818" points="216.25,643.3164,220.25,653.3164,224.25,643.3164,220.25,647.3164" style="stroke:#181818;stroke-width:1.0;"/><line style="stroke:#181818;stroke-width:1.0;" x1="220.25" x2="220.25" y1="687.2852" y2="722.2852"/><polygon fill="#181818" points="216.25,712.2852,220.25,722.2852,224.25,712.2852,220.25,716.2852" style="stroke:#181818;stroke-width:1.0;"/><line style="stroke:#181818;stroke-width:1.0;" x1="220.25" x2="220.25" y1="214.9063" y2="275.6055"/><polygon fill="#181818" points="216.25,265.6055,220.25,275.6055,224.25,265.6055,220.25,269.6055" style="stroke:#181818;stroke-width:1.0;"/><line style="stroke:#181818;stroke-width:1.0;" x1="286.25" x2="513" y1="202.9063" y2="202.9063"/><polygon fill="#181818" points="509,492.1836,513,502.1836,517,492.1836,513,496.1836" style="stroke:#181818;stroke-width:1.0;"/><line style="stroke:#181818;stroke-width:1.0;" x1="513" x2="513" y1="202.9063" y2="792.6563"/><line style="stroke:#181818;stroke-width:1.0;" x1="513" x2="232.25" y1="792.6563" y2="792.6563"/><polygon fill="#181818" points="242.25,788.6563,232.25,792.6563,242.25,796.6563,238.25,792.6563" style="stroke:#181818;stroke-width:1.0;"/><line style="stroke:#181818;stroke-width:1.0;" x1="220.25" x2="220.25" y1="756.2539" y2="780.6563"/><polygon fill="#181818" points="216.25,770.6563,220.25,780.6563,224.25,770.6563,220.25,774.6563" style="stroke:#181818;stroke-width:1.0;"/><line style="stroke:#181818;stroke-width:1.0;" x1="677" x2="677" y1="330.1406" y2="426.1406"/><polygon fill="#181818" points="673,416.1406,677,426.1406,681,416.1406,677,420.1406" style="stroke:#181818;stroke-width:1.0;"/><line style="stroke:#181818;stroke-width:1.0;" x1="780" x2="800" y1="438.1406" y2="438.1406"/><polygon fill="#181818" points="796,385.6484,800,375.6484,804,385.6484,800,381.6484" style="stroke:#181818;stroke-width:1.0;"/><line style="stroke:#181818;stroke-width:1.0;" x1="800" x2="800" y1="313.1563" y2="438.1406"/><line style="stroke:#181818;stroke-width:1.0;" x1="800" x2="788" y1="313.1563" y2="313.1563"/><polygon fill="#181818" points="798,309.1563,788,313.1563,798,317.1563,794,313.1563" style="stroke:#181818;stroke-width:1.0;"/><line style="stroke:#181818;stroke-width:1.0;" x1="677" x2="677" y1="261.1719" y2="296.1719"/><polygon fill="#181818" points="673,286.1719,677,296.1719,681,286.1719,677,290.1719" style="stroke:#181818;stroke-width:1.0;"/><line style="stroke:#181818;stroke-width:1.0;" x1="677" x2="677" y1="450.1406" y2="485.1406"/><polygon fill="#181818" points="673,475.1406,677,485.1406,681,475.1406,677,479.1406" style="stroke:#181818;stroke-width:1.0;"/><line style="stroke:#181818;stroke-width:1.0;" x1="677" x2="677" y1="737.9844" y2="762.3867"/><polygon fill="#181818" points="673,752.3867,677,762.3867,681,752.3867,677,756.3867" style="stroke:#181818;stroke-width:1.0;"/><line style="stroke:#181818;stroke-width:1.0;" x1="784" x2="796" y1="725.1797" y2="725.1797"/><polygon fill="#181818" points="792,768.9688,796,778.9688,800,768.9688,796,772.9688" style="stroke:#181818;stroke-width:1.0;"/><line style="stroke:#181818;stroke-width:1.0;" x1="796" x2="796" y1="725.1797" y2="832.7578"/><line style="stroke:#181818;stroke-width:1.0;" x1="796" x2="689" y1="832.7578" y2="832.7578"/><polygon fill="#181818" points="699,828.7578,689,832.7578,699,836.7578,695,832.7578" style="stroke:#181818;stroke-width:1.0;"/><line style="stroke:#181818;stroke-width:1.0;" x1="677" x2="677" y1="796.3555" y2="820.7578"/><polygon fill="#181818" points="673,810.7578,677,820.7578,681,810.7578,677,814.7578" style="stroke:#181818;stroke-width:1.0;"/><line style="stroke:#181818;stroke-width:1.0;" x1="677" x2="677" y1="651.6758" y2="712.375"/><polygon fill="#181818" points="673,702.375,677,712.375,681,702.375,677,706.375" style="stroke:#181818;stroke-width:1.0;"/><line style="stroke:#181818;stroke-width:1.0;" x1="770" x2="825" y1="639.6758" y2="639.6758"/><polygon fill="#181818" points="821,760.418,825,770.418,829,760.418,825,764.418" style="stroke:#181818;stroke-width:1.0;"/><line style="stroke:#181818;stroke-width:1.0;" x1="825" x2="825" y1="639.6758" y2="888.7578"/><line style="stroke:#181818;stroke-width:1.0;" x1="825" x2="689" y1="888.7578" y2="888.7578"/><polygon fill="#181818" points="699,884.7578,689,888.7578,699,892.7578,695,888.7578" style="stroke:#181818;stroke-width:1.0;"/><line style="stroke:#181818;stroke-width:1.0;" x1="677" x2="677" y1="844.7578" y2="876.7578"/><polygon fill="#181818" points="673,866.7578,677,876.7578,681,866.7578,677,870.7578" style="stroke:#181818;stroke-width:1.0;"/><line style="stroke:#181818;stroke-width:1.0;" x1="677" x2="677" y1="603.2734" y2="627.6758"/><polygon fill="#181818" points="673,617.6758,677,627.6758,681,617.6758,677,621.6758" style="stroke:#181818;stroke-width:1.0;"/><line style="stroke:#181818;stroke-width:1.0;" x1="765" x2="847" y1="591.2734" y2="591.2734"/><polygon fill="#181818" points="843,760.418,847,770.418,851,760.418,847,764.418" style="stroke:#181818;stroke-width:1.0;"/><line style="stroke:#181818;stroke-width:1.0;" x1="847" x2="847" y1="591.2734" y2="932.7578"/><line style="stroke:#181818;stroke-width:1.0;" x1="847" x2="689" y1="932.7578" y2="932.7578"/><polygon fill="#181818" points="699,928.7578,689,932.7578,699,936.7578,695,932.7578" style="stroke:#181818;stroke-width:1.0;"/><line style="stroke:#181818;stroke-width:1.0;" x1="677" x2="677" y1="900.7578" y2="920.7578"/><polygon fill="#181818" points="673,910.7578,677,920.7578,681,910.7578,677,914.7578" style="stroke:#181818;stroke-width:1.0;"/><line style="stroke:#181818;stroke-width:1.0;" x1="677" x2="677" y1="533.0781" y2="579.2734"/><polygon fill="#181818" points="673,569.2734,677,579.2734,681,569.2734,677,573.2734" style="stroke:#181818;stroke-width:1.0;"/><line style="stroke:#181818;stroke-width:1.0;" x1="1004" x2="1004" y1="368.1719" y2="392.5742"/><polygon fill="#181818" points="1000,382.5742,1004,392.5742,1008,382.5742,1004,386.5742" style="stroke:#181818;stroke-width:1.0;"/><line style="stroke:#181818;stroke-width:1.0;" x1="1095" x2="1107" y1="356.1719" y2="356.1719"/><polygon fill="#181818" points="1103,413.5273,1107,423.5273,1111,413.5273,1107,417.5273" style="stroke:#181818;stroke-width:1.0;"/><line style="stroke:#181818;stroke-width:1.0;" x1="1107" x2="1107" y1="356.1719" y2="490.8828"/><line style="stroke:#181818;stroke-width:1.0;" x1="1107" x2="1016" y1="490.8828" y2="490.8828"/><polygon fill="#181818" points="1026,486.8828,1016,490.8828,1026,494.8828,1022,490.8828" style="stroke:#181818;stroke-width:1.0;"/><line style="stroke:#181818;stroke-width:1.0;" x1="1004" x2="1004" y1="454.4805" y2="478.8828"/><polygon fill="#181818" points="1000,468.8828,1004,478.8828,1008,468.8828,1004,472.8828" style="stroke:#181818;stroke-width:1.0;"/><line style="stroke:#181818;stroke-width:1.0;" x1="1004" x2="1004" y1="320.1719" y2="344.1719"/><polygon fill="#181818" points="1000,334.1719,1004,344.1719,1008,334.1719,1004,338.1719" style="stroke:#181818;stroke-width:1.0;"/><line style="stroke:#181818;stroke-width:1.0;" x1="1004" x2="1004" y1="502.8828" y2="514.8828"/><line style="stroke:#181818;stroke-width:1.0;" x1="1004" x2="1119" y1="514.8828" y2="514.8828"/><polygon fill="#181818" points="1115,421.5273,1119,411.5273,1123,421.5273,1119,417.5273" style="stroke:#181818;stroke-width:1.0;"/><line style="stroke:#181818;stroke-width:1.0;" x1="1119" x2="1119" y1="308.1719" y2="514.8828"/><line style="stroke:#181818;stroke-width:1.0;" x1="1119" x2="1083" y1="308.1719" y2="308.1719"/><polygon fill="#181818" points="1093,304.1719,1083,308.1719,1093,312.1719,1089,308.1719" style="stroke:#181818;stroke-width:1.0;"/><line style="stroke:#181818;stroke-width:1.0;" x1="925" x2="901" y1="308.1719" y2="308.1719"/><polygon fill="#181818" points="897,407.5273,901,417.5273,905,407.5273,901,411.5273" style="stroke:#181818;stroke-width:1.0;"/><line style="stroke:#181818;stroke-width:1.0;" x1="901" x2="901" y1="308.1719" y2="526.8828"/><line style="stroke:#181818;stroke-width:1.0;" x1="901" x2="1004" y1="526.8828" y2="526.8828"/><line style="stroke:#181818;stroke-width:1.0;" x1="1004" x2="1004" y1="526.8828" y2="573.0781"/><polygon fill="#181818" points="1000,563.0781,1004,573.0781,1008,563.0781,1004,567.0781" style="stroke:#181818;stroke-width:1.0;"/><line style="stroke:#181818;stroke-width:1.0;" x1="1004" x2="1004" y1="261.1719" y2="296.1719"/><polygon fill="#181818" points="1000,286.1719,1004,296.1719,1008,286.1719,1004,290.1719" style="stroke:#181818;stroke-width:1.0;"/><line style="stroke:#181818;stroke-width:1.0;" x1="1004" x2="1004" y1="671.0273" y2="706.0273"/><polygon fill="#181818" points="1000,696.0273,1004,706.0273,1008,696.0273,1004,700.0273" style="stroke:#181818;stroke-width:1.0;"/><line style="stroke:#181818;stroke-width:1.0;" x1="1004" x2="1004" y1="598.6875" y2="623.0898"/><polygon fill="#181818" points="1000,613.0898,1004,623.0898,1008,613.0898,1004,617.0898" style="stroke:#181818;stroke-width:1.0;"/><line style="stroke:#181818;stroke-width:1.0;" x1="1098.5" x2="1110.5" y1="585.8828" y2="585.8828"/><polygon fill="#181818" points="1106.5,678.125,1110.5,688.125,1114.5,678.125,1110.5,682.125" style="stroke:#181818;stroke-width:1.0;"/><line style="stroke:#181818;stroke-width:1.0;" x1="1110.5" x2="1110.5" y1="585.8828" y2="790.3672"/><line style="stroke:#181818;stroke-width:1.0;" x1="1110.5" x2="1016" y1="790.3672" y2="790.3672"/><polygon fill="#181818" points="1026,786.3672,1016,790.3672,1026,794.3672,1022,790.3672" style="stroke:#181818;stroke-width:1.0;"/><line style="stroke:#181818;stroke-width:1.0;" x1="1004" x2="1004" y1="753.9648" y2="778.3672"/><polygon fill="#181818" points="1000,768.3672,1004,778.3672,1008,768.3672,1004,772.3672" style="stroke:#181818;stroke-width:1.0;"/><line style="stroke:#181818;stroke-width:1.0;" x1="1623.5" x2="1623.5" y1="292.875" y2="327.875"/><polygon fill="#181818" points="1619.5,317.875,1623.5,327.875,1627.5,317.875,1623.5,321.875" style="stroke:#181818;stroke-width:1.0;"/><line style="stroke:#181818;stroke-width:1.0;" x1="1426.5" x2="1416.5" y1="236.9063" y2="236.9063"/><line style="stroke:#181818;stroke-width:1.0;" x1="1416.5" x2="1416.5" y1="236.9063" y2="258.9063"/><polygon fill="#181818" points="1412.5,248.9063,1416.5,258.9063,1420.5,248.9063,1416.5,252.9063" style="stroke:#181818;stroke-width:1.0;"/><line style="stroke:#181818;stroke-width:1.0;" x1="1613.5" x2="1623.5" y1="236.9063" y2="236.9063"/><line style="stroke:#181818;stroke-width:1.0;" x1="1623.5" x2="1623.5" y1="236.9063" y2="258.9063"/><polygon fill="#181818" points="1619.5,248.9063,1623.5,258.9063,1627.5,248.9063,1623.5,252.9063" style="stroke:#181818;stroke-width:1.0;"/><line style="stroke:#181818;stroke-width:1.0;" x1="1416.5" x2="1416.5" y1="306.8438" y2="393.8125"/><line style="stroke:#181818;stroke-width:1.0;" x1="1416.5" x2="1508" y1="393.8125" y2="393.8125"/><polygon fill="#181818" points="1498,389.8125,1508,393.8125,1498,397.8125,1502,393.8125" style="stroke:#181818;stroke-width:1.0;"/><line style="stroke:#181818;stroke-width:1.0;" x1="1623.5" x2="1623.5" y1="375.8125" y2="393.8125"/><line style="stroke:#181818;stroke-width:1.0;" x1="1623.5" x2="1532" y1="393.8125" y2="393.8125"/><polygon fill="#181818" points="1542,389.8125,1532,393.8125,1542,397.8125,1538,393.8125" style="stroke:#181818;stroke-width:1.0;"/><line style="stroke:#181818;stroke-width:1.0;" x1="1317.5" x2="1279" y1="202.9063" y2="202.9063"/><line style="stroke:#181818;stroke-width:1.0;" x1="1279" x2="1279" y1="202.9063" y2="224.9063"/><polygon fill="#181818" points="1275,214.9063,1279,224.9063,1283,214.9063,1279,218.9063" style="stroke:#181818;stroke-width:1.0;"/><line style="stroke:#181818;stroke-width:1.0;" x1="1481.5" x2="1520" y1="202.9063" y2="202.9063"/><line style="stroke:#181818;stroke-width:1.0;" x1="1520" x2="1520" y1="202.9063" y2="224.9063"/><polygon fill="#181818" points="1516,214.9063,1520,224.9063,1524,214.9063,1520,218.9063" style="stroke:#181818;stroke-width:1.0;"/><line style="stroke:#181818;stroke-width:1.0;" x1="1279" x2="1279" y1="258.875" y2="423.8125"/><line style="stroke:#181818;stroke-width:1.0;" x1="1279" x2="1387.5" y1="423.8125" y2="423.8125"/><polygon fill="#181818" points="1377.5,419.8125,1387.5,423.8125,1377.5,427.8125,1381.5,423.8125" style="stroke:#181818;stroke-width:1.0;"/><line style="stroke:#181818;stroke-width:1.0;" x1="1520" x2="1520" y1="405.8125" y2="423.8125"/><line style="stroke:#181818;stroke-width:1.0;" x1="1520" x2="1411.5" y1="423.8125" y2="423.8125"/><polygon fill="#181818" points="1421.5,419.8125,1411.5,423.8125,1421.5,427.8125,1417.5,423.8125" style="stroke:#181818;stroke-width:1.0;"/><line style="stroke:#181818;stroke-width:1.0;" x1="809.5" x2="220.25" y1="143.2969" y2="143.2969"/><line style="stroke:#181818;stroke-width:1.0;" x1="220.25" x2="220.25" y1="143.2969" y2="190.9063"/><polygon fill="#181818" points="216.25,180.9063,220.25,190.9063,224.25,180.9063,220.25,184.9063" style="stroke:#181818;stroke-width:1.0;"/><text fill="#000000" font-family="sans-serif" font-size="11" lengthAdjust="spacing" textLength="49" x="220.25" y="170.9097">New slot</text><line style="stroke:#181818;stroke-width:1.0;" x1="915.5" x2="1399.5" y1="143.2969" y2="143.2969"/><line style="stroke:#181818;stroke-width:1.0;" x1="1399.5" x2="1399.5" y1="143.2969" y2="190.9063"/><polygon fill="#181818" points="1395.5,180.9063,1399.5,190.9063,1403.5,180.9063,1399.5,184.9063" style="stroke:#181818;stroke-width:1.0;"/><text fill="#000000" font-family="sans-serif" font-size="11" lengthAdjust="spacing" textLength="201" x="1399.5" y="170.9097">Vote received from upstream peer</text><line style="stroke:#181818;stroke-width:1.0;" x1="677" x2="677" y1="143.2969" y2="227.2031"/><polygon fill="#181818" points="673,217.2031,677,227.2031,681,217.2031,677,221.2031" style="stroke:#181818;stroke-width:1.0;"/><text fill="#000000" font-family="sans-serif" font-size="11" lengthAdjust="spacing" textLength="61" x="677" y="184.0581">New round</text><line style="stroke:#181818;stroke-width:1.0;" x1="1004" x2="1004" y1="143.2969" y2="227.2031"/><polygon fill="#181818" points="1000,217.2031,1004,227.2031,1008,217.2031,1004,221.2031" style="stroke:#181818;stroke-width:1.0;"/><text fill="#000000" font-family="sans-serif" font-size="11" lengthAdjust="spacing" textLength="206" x="1004" y="184.0581">Chain received from upstream peer</text><line style="stroke:#181818;stroke-width:1.0;" x1="220.25" x2="220.25" y1="804.6563" y2="966.7578"/><line style="stroke:#181818;stroke-width:1.0;" x1="220.25" x2="850.5" y1="966.7578" y2="966.7578"/><polygon fill="#181818" points="840.5,962.7578,850.5,966.7578,840.5,970.7578,844.5,966.7578" style="stroke:#181818;stroke-width:1.0;"/><line style="stroke:#181818;stroke-width:1.0;" x1="1399.5" x2="1399.5" y1="435.8125" y2="966.7578"/><line style="stroke:#181818;stroke-width:1.0;" x1="1399.5" x2="874.5" y1="966.7578" y2="966.7578"/><polygon fill="#181818" points="884.5,962.7578,874.5,966.7578,884.5,970.7578,880.5,966.7578" style="stroke:#181818;stroke-width:1.0;"/><line style="stroke:#181818;stroke-width:1.0;" x1="677" x2="677" y1="944.7578" y2="966.7578"/><polygon fill="#181818" points="673,956.7578,677,966.7578,681,956.7578,677,960.7578" style="stroke:#181818;stroke-width:1.0;"/><line style="stroke:#181818;stroke-width:1.0;" x1="1004" x2="1004" y1="802.3672" y2="966.7578"/><polygon fill="#181818" points="1000,956.7578,1004,966.7578,1008,956.7578,1004,960.7578" style="stroke:#181818;stroke-width:1.0;"/><line style="stroke:#181818;stroke-width:1.0;" x1="862.5" x2="862.5" y1="111.2969" y2="131.2969"/><polygon fill="#181818" points="858.5,121.2969,862.5,131.2969,866.5,121.2969,862.5,125.2969" style="stroke:#181818;stroke-width:1.0;"/><line style="stroke:#181818;stroke-width:1.0;" x1="862.5" x2="862.5" y1="978.7578" y2="988.7578"/><line style="stroke:#181818;stroke-width:1.0;" x1="862.5" x2="1714" y1="988.7578" y2="988.7578"/><polygon fill="#181818" points="1710,607.0273,1714,597.0273,1718,607.0273,1714,603.0273" style="stroke:#181818;stroke-width:1.0;"/><line style="stroke:#181818;stroke-width:1.0;" x1="1714" x2="1714" y1="99.2969" y2="988.7578"/><line style="stroke:#181818;stroke-width:1.0;" x1="1714" x2="888" y1="99.2969" y2="99.2969"/><polygon fill="#181818" points="898,95.2969,888,99.2969,898,103.2969,894,99.2969" style="stroke:#181818;stroke-width:1.0;"/><line style="stroke:#181818;stroke-width:1.0;" x1="837" x2="24" y1="99.2969" y2="99.2969"/><line style="stroke:#181818;stroke-width:1.0;" x1="24" x2="24" y1="99.2969" y2="131.2969"/><polygon fill="#181818" points="20,121.2969,24,131.2969,28,121.2969,24,125.2969" style="stroke:#181818;stroke-width:1.0;"/><line style="stroke:#181818;stroke-width:1.0;" x1="862.5" x2="862.5" y1="67.2969" y2="87.2969"/><polygon fill="#181818" points="858.5,77.2969,862.5,87.2969,866.5,77.2969,862.5,81.2969" style="stroke:#181818;stroke-width:1.0;"/><!--SRC=[ZLRRRjim37ttL_0n1VO5oKCHj1iG32s65MXV_ABOJ2nC5br9Zfk_7tNn9NQIBGYIm2B5myD3CauwXV0BZR2mBPmyINS6uS1L2AzKOcQTC2xhAibcg-zVqZq-P02sawweOFKXf8C36S0JQkTF00fXsVGLEx2AqZC0UO3LjeOTYF0O58eIpUE3ZwHXTKRRMm8S3RKDlA72mi697DhX2C1WWmnm_KJQIhu2K32IKkYZaleOp3SJynXvPyC1u5SZ3PRNmyRN-bdQGfZooaseV6QQvYufWl0k7WCr3HdNQkRoMwv9GsFmW8O3Gr49gU-5Pm3RCWO7Hx1NLFpPp6nkuM3VduWDS2r5hkzGmbVeKXwoUqyIpwdoBsJmacJhuHMf29oHjBDy-C9OoUmYiv2HzvsHCY9SltdNsR7tAAdJrXaKDJI8nlOkSpx6L4OjCX1TFa0sLTZg6HsQMcg4pvPCMq_GhtTy9BW81qCrEDa07UP05rAClCXGy9EariQm2uz4wbQV4nti4YoXujf5B8dIQPNNxr5V_5meHHrpmzABvj2945a9wt8TB-E-552tYj5pECRlkxeWKfv8fj186h3DgpLsZOyuX4iuhojuqkC5rRLq3X5ghFUt6dtMwe6BHUzkMNdiov_XtFQ930B9TLG8lml1fIzzsJgfESkxZVxkUymFhvgiuz8KFCAkDTprTfltorBkIx-fpxz4-nHoygZaYPaFCcoRYVoZOoJm1OLjcQ4EvR5oWrG7zwmNDSyaALHlnq9Ig8-kMeWxAVG7fVaQPSgZB5XTblo3bHUKDLGXIMnW_v8xHb4Oh3tR2SV-d6lTUfru8A6BSkrapSsq9oxEPiRfVCwCfEho8oBNn6KTD1EjBqlaeV_kwOtOVVTvhrmdOAuI_pMzUR9HuyPg1SDSytM3Sv_3rUd6sTuQRvSwcQiaQFYV8Xdh5FQAK7nUdi4YtjX5wzrHXudVDaeMOjmVIqsdGU4542_NW9-jF16xIRgvw_e8V9ZhgSCckzTtOOLuhYvMqRHV8xzfV-RwrivOw2Ryvk_uroRhbSH_WAZv2m00]--></g></svg>