<svg width="215" height="170" viewBox="0 0 215 170" fill="none" xmlns="http://www.w3.org/2000/svg" style="width: 100%; height: 100%;">
<g clip-path="url(#clip0_35_3518)">
<path d="M171.65 18.309C180.369 17.079 187.786 9.494 188.822 0.75C188.083 8.28 192.751 16.026 199.754 18.891C196.168 19.094 192.994 21.565 191.156 24.651C189.318 27.737 188.633 31.37 188.295 34.946C188.103 26.083 180.186 18.089 171.65 18.309Z" stroke="#010101" stroke-width="1.5" stroke-linecap="round" stroke-linejoin="round"></path>
<path d="M0.75 141.656C9.469 140.426 16.886 132.841 17.922 124.097C17.183 131.627 21.851 139.373 28.854 142.238C25.268 142.441 22.094 144.912 20.256 147.998C18.418 151.084 17.733 154.717 17.395 158.293C17.203 149.43 9.286 141.436 0.75 141.656Z" stroke="#010101" stroke-width="1.5" stroke-linecap="round" stroke-linejoin="round"></path>
<path d="M146.913 132.118C151.999 123.434 152.384 122.094 157.47 113.41C161.031 107.331 164.985 100.896 172.206 97.504C176.102 95.674 181.475 95.033 184.92 97.409C192.958 102.953 187.482 117.624 179.774 132.841C170.599 132.841 160.643 132.61 146.912 132.117L146.913 132.118Z" fill="#55D087" stroke="#010101" stroke-width="1.5" stroke-linecap="round" stroke-linejoin="round"></path>
<path d="M179.516 100.255C175.313 113.529 171.799 119.339 165.691 132.117" stroke="#010101" stroke-width="1.5" stroke-linecap="round" stroke-linejoin="round"></path>
<path d="M176.791 132.806C185.545 119.806 189.948 110.914 202.149 107.453C204.541 106.775 207.3 106.495 209.558 107.446C212.112 108.521 214.115 110.912 213.759 113.204C212.395 121.995 207.045 126.763 203.771 133.068C192.822 132.927 185.072 132.913 176.791 132.806Z" fill="#55D087" stroke="#010101" stroke-width="1.5" stroke-linecap="round" stroke-linejoin="round"></path>
<path d="M206.617 108.848C200.568 119.198 199.137 122.562 191.33 132.117" stroke="#010101" stroke-width="1.5" stroke-linecap="round" stroke-linejoin="round"></path>
<path d="M163.511 53.3409C143.122 47.8029 110.603 31.4029 108.04 22.6429C85.149 41.8149 58.56 50.4599 40.439 51.0559C39.345 76.1009 40.003 115.218 50.263 134.306C57.334 147.462 70.69 156.165 84.578 161.66C92.879 164.944 101.554 167.285 109.911 169.097C126.244 161.291 143.258 152.677 153.344 137.644C162.445 124.08 163.131 96.6109 163.682 80.2859C163.874 74.611 165.338 59.6889 163.51 53.3409H163.511Z" fill="#1F5B3B" stroke="#010101" stroke-width="1.5" stroke-linecap="round" stroke-linejoin="round"></path>
<path d="M97.51 58.323C90.783 59.253 84.715 63.129 79.795 67.81C71.249 75.941 66.179 88.0811 68.023 99.7331C68.827 104.812 70.88 109.652 73.684 113.963C80.309 124.148 91.307 131.377 103.282 133.433C117.143 135.812 123.559 129.095 126.605 126.442C134.676 119.411 141.819 108.751 141.505 97.1491C141.111 82.5761 131.968 53.5601 97.51 58.323Z" fill="white" stroke="#010101" stroke-width="1.5" stroke-linecap="round" stroke-linejoin="round"></path>
<path d="M129.726 84.229C119.212 96.016 108.127 107.293 96.523 118.008C90.685 111.307 84.848 104.606 79.63 98.134C82.02 95.67 84.425 94.736 87.412 92.374C90.587 95.831 93.782 100.393 97.296 104.797C106.01 96.667 112.893 89.01 123.221 78.682C125.363 80.592 127.505 82.501 129.726 84.23V84.229Z" fill="#e6b104" stroke="#010101" stroke-width="1.5" stroke-linecap="round" stroke-linejoin="round"></path>
</g>
<defs>
<clipPath id="clip0_35_3518">
<rect width="214.55" height="169.847" fill="white"></rect>
</clipPath>
</defs>
</svg>