<svg id="visual" viewBox="0 0 1920 100" width="1920" height="100" xmlns="http://www.w3.org/2000/svg" xmlns:xlink="http://www.w3.org/1999/xlink" version="1.1"><rect x="0" y="0" width="1920" height="100" fill="#050F0A"></rect><path d="M0 26L91 65L183 44L274 63L366 32L457 65L549 45L640 78L731 33L823 28L914 42L1006 31L1097 40L1189 31L1280 57L1371 38L1463 71L1554 65L1646 65L1737 83L1829 69L1920 51L1920 101L1829 101L1737 101L1646 101L1554 101L1463 101L1371 101L1280 101L1189 101L1097 101L1006 101L914 101L823 101L731 101L640 101L549 101L457 101L366 101L274 101L183 101L91 101L0 101Z" fill="#0A1E14" stroke-linecap="square" stroke-linejoin="bevel"></path></svg>